<svg width="160" height="142" viewBox="0 0 160 142" fill="none" xmlns="http://www.w3.org/2000/svg">
<g clip-path="url(#clip0)">
<path d="M63 42.7319C63 43.5604 62.3284 44.2319 61.5 44.2319C60.6716 44.2319 60 43.5604 60 42.7319C60 41.9035 60.6716 41.2319 61.5 41.2319C62.3284 41.2319 63 41.9035 63 42.7319Z" fill="#F7F7F7" fill-opacity="0.15"/>
<path d="M72 42.7319C72 43.5604 71.3284 44.2319 70.5 44.2319C69.6716 44.2319 69 43.5604 69 42.7319C69 41.9035 69.6716 41.2319 70.5 41.2319C71.3284 41.2319 72 41.9035 72 42.7319Z" fill="#F7F7F7" fill-opacity="0.15"/>
<path d="M81 42.7319C81 43.5604 80.3284 44.2319 79.5 44.2319C78.6716 44.2319 78 43.5604 78 42.7319C78 41.9035 78.6716 41.2319 79.5 41.2319C80.3284 41.2319 81 41.9035 81 42.7319Z" fill="#F7F7F7" fill-opacity="0.15"/>
<path d="M90 42.7319C90 43.5604 89.3284 44.2319 88.5 44.2319C87.6716 44.2319 87 43.5604 87 42.7319C87 41.9035 87.6716 41.2319 88.5 41.2319C89.3284 41.2319 90 41.9035 90 42.7319Z" fill="#F7F7F7" fill-opacity="0.15"/>
<path d="M99 42.7319C99 43.5604 98.3284 44.2319 97.5 44.2319C96.6716 44.2319 96 43.5604 96 42.7319C96 41.9035 96.6716 41.2319 97.5 41.2319C98.3284 41.2319 99 41.9035 99 42.7319Z" fill="#F7F7F7" fill-opacity="0.15"/>
<path d="M108 42.7319C108 43.5604 107.328 44.2319 106.5 44.2319C105.672 44.2319 105 43.5604 105 42.7319C105 41.9035 105.672 41.2319 106.5 41.2319C107.328 41.2319 108 41.9035 108 42.7319Z" fill="#F7F7F7" fill-opacity="0.15"/>
<path d="M117 42.7319C117 43.5604 116.328 44.2319 115.5 44.2319C114.672 44.2319 114 43.5604 114 42.7319C114 41.9035 114.672 41.2319 115.5 41.2319C116.328 41.2319 117 41.9035 117 42.7319Z" fill="#F7F7F7" fill-opacity="0.15"/>
<path d="M126 42.7319C126 43.5604 125.328 44.2319 124.5 44.2319C123.672 44.2319 123 43.5604 123 42.7319C123 41.9035 123.672 41.2319 124.5 41.2319C125.328 41.2319 126 41.9035 126 42.7319Z" fill="#F7F7F7" fill-opacity="0.15"/>
<path d="M135 42.7319C135 43.5604 134.328 44.2319 133.5 44.2319C132.672 44.2319 132 43.5604 132 42.7319C132 41.9035 132.672 41.2319 133.5 41.2319C134.328 41.2319 135 41.9035 135 42.7319Z" fill="#F7F7F7" fill-opacity="0.15"/>
<path d="M144 42.7319C144 43.5604 143.328 44.2319 142.5 44.2319C141.672 44.2319 141 43.5604 141 42.7319C141 41.9035 141.672 41.2319 142.5 41.2319C143.328 41.2319 144 41.9035 144 42.7319Z" fill="#F7F7F7" fill-opacity="0.15"/>
<path d="M153 42.7319C153 43.5604 152.328 44.2319 151.5 44.2319C150.672 44.2319 150 43.5604 150 42.7319C150 41.9035 150.672 41.2319 151.5 41.2319C152.328 41.2319 153 41.9035 153 42.7319Z" fill="#F7F7F7" fill-opacity="0.15"/>
<path d="M63 51.7319C63 52.5604 62.3284 53.2319 61.5 53.2319C60.6716 53.2319 60 52.5604 60 51.7319C60 50.9035 60.6716 50.2319 61.5 50.2319C62.3284 50.2319 63 50.9035 63 51.7319Z" fill="#F7F7F7" fill-opacity="0.15"/>
<path d="M72 51.7319C72 52.5604 71.3284 53.2319 70.5 53.2319C69.6716 53.2319 69 52.5604 69 51.7319C69 50.9035 69.6716 50.2319 70.5 50.2319C71.3284 50.2319 72 50.9035 72 51.7319Z" fill="#F7F7F7" fill-opacity="0.15"/>
<path d="M81 51.7319C81 52.5604 80.3284 53.2319 79.5 53.2319C78.6716 53.2319 78 52.5604 78 51.7319C78 50.9035 78.6716 50.2319 79.5 50.2319C80.3284 50.2319 81 50.9035 81 51.7319Z" fill="#F7F7F7" fill-opacity="0.15"/>
<path d="M90 51.7319C90 52.5604 89.3284 53.2319 88.5 53.2319C87.6716 53.2319 87 52.5604 87 51.7319C87 50.9035 87.6716 50.2319 88.5 50.2319C89.3284 50.2319 90 50.9035 90 51.7319Z" fill="#F7F7F7" fill-opacity="0.15"/>
<path d="M99 51.7319C99 52.5604 98.3284 53.2319 97.5 53.2319C96.6716 53.2319 96 52.5604 96 51.7319C96 50.9035 96.6716 50.2319 97.5 50.2319C98.3284 50.2319 99 50.9035 99 51.7319Z" fill="#F7F7F7" fill-opacity="0.15"/>
<path d="M108 51.7319C108 52.5604 107.328 53.2319 106.5 53.2319C105.672 53.2319 105 52.5604 105 51.7319C105 50.9035 105.672 50.2319 106.5 50.2319C107.328 50.2319 108 50.9035 108 51.7319Z" fill="#F7F7F7" fill-opacity="0.15"/>
<path d="M117 51.7319C117 52.5604 116.328 53.2319 115.5 53.2319C114.672 53.2319 114 52.5604 114 51.7319C114 50.9035 114.672 50.2319 115.5 50.2319C116.328 50.2319 117 50.9035 117 51.7319Z" fill="#F7F7F7" fill-opacity="0.15"/>
<path d="M126 51.7319C126 52.5604 125.328 53.2319 124.5 53.2319C123.672 53.2319 123 52.5604 123 51.7319C123 50.9035 123.672 50.2319 124.5 50.2319C125.328 50.2319 126 50.9035 126 51.7319Z" fill="#F7F7F7" fill-opacity="0.15"/>
<path d="M135 51.7319C135 52.5604 134.328 53.2319 133.5 53.2319C132.672 53.2319 132 52.5604 132 51.7319C132 50.9035 132.672 50.2319 133.5 50.2319C134.328 50.2319 135 50.9035 135 51.7319Z" fill="#F7F7F7" fill-opacity="0.15"/>
<path d="M144 51.7319C144 52.5604 143.328 53.2319 142.5 53.2319C141.672 53.2319 141 52.5604 141 51.7319C141 50.9035 141.672 50.2319 142.5 50.2319C143.328 50.2319 144 50.9035 144 51.7319Z" fill="#F7F7F7" fill-opacity="0.15"/>
<path d="M153 51.7319C153 52.5604 152.328 53.2319 151.5 53.2319C150.672 53.2319 150 52.5604 150 51.7319C150 50.9035 150.672 50.2319 151.5 50.2319C152.328 50.2319 153 50.9035 153 51.7319Z" fill="#F7F7F7" fill-opacity="0.15"/>
<path d="M63 60.7319C63 61.5604 62.3284 62.2319 61.5 62.2319C60.6716 62.2319 60 61.5604 60 60.7319C60 59.9035 60.6716 59.2319 61.5 59.2319C62.3284 59.2319 63 59.9035 63 60.7319Z" fill="#F7F7F7" fill-opacity="0.15"/>
<path d="M72 60.7319C72 61.5604 71.3284 62.2319 70.5 62.2319C69.6716 62.2319 69 61.5604 69 60.7319C69 59.9035 69.6716 59.2319 70.5 59.2319C71.3284 59.2319 72 59.9035 72 60.7319Z" fill="#F7F7F7" fill-opacity="0.15"/>
<path d="M81 60.7319C81 61.5604 80.3284 62.2319 79.5 62.2319C78.6716 62.2319 78 61.5604 78 60.7319C78 59.9035 78.6716 59.2319 79.5 59.2319C80.3284 59.2319 81 59.9035 81 60.7319Z" fill="#F7F7F7" fill-opacity="0.15"/>
<path d="M90 60.7319C90 61.5604 89.3284 62.2319 88.5 62.2319C87.6716 62.2319 87 61.5604 87 60.7319C87 59.9035 87.6716 59.2319 88.5 59.2319C89.3284 59.2319 90 59.9035 90 60.7319Z" fill="#F7F7F7" fill-opacity="0.15"/>
<path d="M99 60.7319C99 61.5604 98.3284 62.2319 97.5 62.2319C96.6716 62.2319 96 61.5604 96 60.7319C96 59.9035 96.6716 59.2319 97.5 59.2319C98.3284 59.2319 99 59.9035 99 60.7319Z" fill="#F7F7F7" fill-opacity="0.15"/>
<path d="M108 60.7319C108 61.5604 107.328 62.2319 106.5 62.2319C105.672 62.2319 105 61.5604 105 60.7319C105 59.9035 105.672 59.2319 106.5 59.2319C107.328 59.2319 108 59.9035 108 60.7319Z" fill="#F7F7F7" fill-opacity="0.15"/>
<path d="M117 60.7319C117 61.5604 116.328 62.2319 115.5 62.2319C114.672 62.2319 114 61.5604 114 60.7319C114 59.9035 114.672 59.2319 115.5 59.2319C116.328 59.2319 117 59.9035 117 60.7319Z" fill="#F7F7F7" fill-opacity="0.15"/>
<path d="M126 60.7319C126 61.5604 125.328 62.2319 124.5 62.2319C123.672 62.2319 123 61.5604 123 60.7319C123 59.9035 123.672 59.2319 124.5 59.2319C125.328 59.2319 126 59.9035 126 60.7319Z" fill="#F7F7F7" fill-opacity="0.15"/>
<path d="M135 60.7319C135 61.5604 134.328 62.2319 133.5 62.2319C132.672 62.2319 132 61.5604 132 60.7319C132 59.9035 132.672 59.2319 133.5 59.2319C134.328 59.2319 135 59.9035 135 60.7319Z" fill="#F7F7F7" fill-opacity="0.15"/>
<path d="M144 60.7319C144 61.5604 143.328 62.2319 142.5 62.2319C141.672 62.2319 141 61.5604 141 60.7319C141 59.9035 141.672 59.2319 142.5 59.2319C143.328 59.2319 144 59.9035 144 60.7319Z" fill="#F7F7F7" fill-opacity="0.15"/>
<path d="M153 60.7319C153 61.5604 152.328 62.2319 151.5 62.2319C150.672 62.2319 150 61.5604 150 60.7319C150 59.9035 150.672 59.2319 151.5 59.2319C152.328 59.2319 153 59.9035 153 60.7319Z" fill="#F7F7F7" fill-opacity="0.15"/>
<path d="M63 69.7319C63 70.5604 62.3284 71.2319 61.5 71.2319C60.6716 71.2319 60 70.5604 60 69.7319C60 68.9035 60.6716 68.2319 61.5 68.2319C62.3284 68.2319 63 68.9035 63 69.7319Z" fill="#F7F7F7" fill-opacity="0.15"/>
<path d="M72 69.7319C72 70.5604 71.3284 71.2319 70.5 71.2319C69.6716 71.2319 69 70.5604 69 69.7319C69 68.9035 69.6716 68.2319 70.5 68.2319C71.3284 68.2319 72 68.9035 72 69.7319Z" fill="#F7F7F7" fill-opacity="0.15"/>
<path d="M81 69.7319C81 70.5604 80.3284 71.2319 79.5 71.2319C78.6716 71.2319 78 70.5604 78 69.7319C78 68.9035 78.6716 68.2319 79.5 68.2319C80.3284 68.2319 81 68.9035 81 69.7319Z" fill="#F7F7F7" fill-opacity="0.15"/>
<path d="M90 69.7319C90 70.5604 89.3284 71.2319 88.5 71.2319C87.6716 71.2319 87 70.5604 87 69.7319C87 68.9035 87.6716 68.2319 88.5 68.2319C89.3284 68.2319 90 68.9035 90 69.7319Z" fill="#F7F7F7" fill-opacity="0.15"/>
<path d="M99 69.7319C99 70.5604 98.3284 71.2319 97.5 71.2319C96.6716 71.2319 96 70.5604 96 69.7319C96 68.9035 96.6716 68.2319 97.5 68.2319C98.3284 68.2319 99 68.9035 99 69.7319Z" fill="#F7F7F7" fill-opacity="0.15"/>
<path d="M108 69.7319C108 70.5604 107.328 71.2319 106.5 71.2319C105.672 71.2319 105 70.5604 105 69.7319C105 68.9035 105.672 68.2319 106.5 68.2319C107.328 68.2319 108 68.9035 108 69.7319Z" fill="#F7F7F7" fill-opacity="0.15"/>
<path d="M117 69.7319C117 70.5604 116.328 71.2319 115.5 71.2319C114.672 71.2319 114 70.5604 114 69.7319C114 68.9035 114.672 68.2319 115.5 68.2319C116.328 68.2319 117 68.9035 117 69.7319Z" fill="#F7F7F7" fill-opacity="0.15"/>
<path d="M126 69.7319C126 70.5604 125.328 71.2319 124.5 71.2319C123.672 71.2319 123 70.5604 123 69.7319C123 68.9035 123.672 68.2319 124.5 68.2319C125.328 68.2319 126 68.9035 126 69.7319Z" fill="#F7F7F7" fill-opacity="0.15"/>
<path d="M135 69.7319C135 70.5604 134.328 71.2319 133.5 71.2319C132.672 71.2319 132 70.5604 132 69.7319C132 68.9035 132.672 68.2319 133.5 68.2319C134.328 68.2319 135 68.9035 135 69.7319Z" fill="#F7F7F7" fill-opacity="0.15"/>
<path d="M144 69.7319C144 70.5604 143.328 71.2319 142.5 71.2319C141.672 71.2319 141 70.5604 141 69.7319C141 68.9035 141.672 68.2319 142.5 68.2319C143.328 68.2319 144 68.9035 144 69.7319Z" fill="#F7F7F7" fill-opacity="0.15"/>
<path d="M153 69.7319C153 70.5604 152.328 71.2319 151.5 71.2319C150.672 71.2319 150 70.5604 150 69.7319C150 68.9035 150.672 68.2319 151.5 68.2319C152.328 68.2319 153 68.9035 153 69.7319Z" fill="#F7F7F7" fill-opacity="0.15"/>
<path d="M63 78.7319C63 79.5604 62.3284 80.2319 61.5 80.2319C60.6716 80.2319 60 79.5604 60 78.7319C60 77.9035 60.6716 77.2319 61.5 77.2319C62.3284 77.2319 63 77.9035 63 78.7319Z" fill="#F7F7F7" fill-opacity="0.15"/>
<path d="M72 78.7319C72 79.5604 71.3284 80.2319 70.5 80.2319C69.6716 80.2319 69 79.5604 69 78.7319C69 77.9035 69.6716 77.2319 70.5 77.2319C71.3284 77.2319 72 77.9035 72 78.7319Z" fill="#F7F7F7" fill-opacity="0.15"/>
<path d="M81 78.7319C81 79.5604 80.3284 80.2319 79.5 80.2319C78.6716 80.2319 78 79.5604 78 78.7319C78 77.9035 78.6716 77.2319 79.5 77.2319C80.3284 77.2319 81 77.9035 81 78.7319Z" fill="#F7F7F7" fill-opacity="0.15"/>
<path d="M90 78.7319C90 79.5604 89.3284 80.2319 88.5 80.2319C87.6716 80.2319 87 79.5604 87 78.7319C87 77.9035 87.6716 77.2319 88.5 77.2319C89.3284 77.2319 90 77.9035 90 78.7319Z" fill="#F7F7F7" fill-opacity="0.15"/>
<path d="M99 78.7319C99 79.5604 98.3284 80.2319 97.5 80.2319C96.6716 80.2319 96 79.5604 96 78.7319C96 77.9035 96.6716 77.2319 97.5 77.2319C98.3284 77.2319 99 77.9035 99 78.7319Z" fill="#F7F7F7" fill-opacity="0.15"/>
<path d="M108 78.7319C108 79.5604 107.328 80.2319 106.5 80.2319C105.672 80.2319 105 79.5604 105 78.7319C105 77.9035 105.672 77.2319 106.5 77.2319C107.328 77.2319 108 77.9035 108 78.7319Z" fill="#F7F7F7" fill-opacity="0.15"/>
<path d="M117 78.7319C117 79.5604 116.328 80.2319 115.5 80.2319C114.672 80.2319 114 79.5604 114 78.7319C114 77.9035 114.672 77.2319 115.5 77.2319C116.328 77.2319 117 77.9035 117 78.7319Z" fill="#F7F7F7" fill-opacity="0.15"/>
<path d="M126 78.7319C126 79.5604 125.328 80.2319 124.5 80.2319C123.672 80.2319 123 79.5604 123 78.7319C123 77.9035 123.672 77.2319 124.5 77.2319C125.328 77.2319 126 77.9035 126 78.7319Z" fill="#F7F7F7" fill-opacity="0.15"/>
<path d="M135 78.7319C135 79.5604 134.328 80.2319 133.5 80.2319C132.672 80.2319 132 79.5604 132 78.7319C132 77.9035 132.672 77.2319 133.5 77.2319C134.328 77.2319 135 77.9035 135 78.7319Z" fill="#F7F7F7" fill-opacity="0.15"/>
<path d="M144 78.7319C144 79.5604 143.328 80.2319 142.5 80.2319C141.672 80.2319 141 79.5604 141 78.7319C141 77.9035 141.672 77.2319 142.5 77.2319C143.328 77.2319 144 77.9035 144 78.7319Z" fill="#F7F7F7" fill-opacity="0.15"/>
<path d="M153 78.7319C153 79.5604 152.328 80.2319 151.5 80.2319C150.672 80.2319 150 79.5604 150 78.7319C150 77.9035 150.672 77.2319 151.5 77.2319C152.328 77.2319 153 77.9035 153 78.7319Z" fill="#F7F7F7" fill-opacity="0.15"/>
<path d="M63 87.7319C63 88.5604 62.3284 89.2319 61.5 89.2319C60.6716 89.2319 60 88.5604 60 87.7319C60 86.9035 60.6716 86.2319 61.5 86.2319C62.3284 86.2319 63 86.9035 63 87.7319Z" fill="#F7F7F7" fill-opacity="0.15"/>
<path d="M72 87.7319C72 88.5604 71.3284 89.2319 70.5 89.2319C69.6716 89.2319 69 88.5604 69 87.7319C69 86.9035 69.6716 86.2319 70.5 86.2319C71.3284 86.2319 72 86.9035 72 87.7319Z" fill="#F7F7F7" fill-opacity="0.15"/>
<path d="M81 87.7319C81 88.5604 80.3284 89.2319 79.5 89.2319C78.6716 89.2319 78 88.5604 78 87.7319C78 86.9035 78.6716 86.2319 79.5 86.2319C80.3284 86.2319 81 86.9035 81 87.7319Z" fill="#F7F7F7" fill-opacity="0.15"/>
<path d="M90 87.7319C90 88.5604 89.3284 89.2319 88.5 89.2319C87.6716 89.2319 87 88.5604 87 87.7319C87 86.9035 87.6716 86.2319 88.5 86.2319C89.3284 86.2319 90 86.9035 90 87.7319Z" fill="#F7F7F7" fill-opacity="0.15"/>
<path d="M99 87.7319C99 88.5604 98.3284 89.2319 97.5 89.2319C96.6716 89.2319 96 88.5604 96 87.7319C96 86.9035 96.6716 86.2319 97.5 86.2319C98.3284 86.2319 99 86.9035 99 87.7319Z" fill="#F7F7F7" fill-opacity="0.15"/>
<path d="M108 87.7319C108 88.5604 107.328 89.2319 106.5 89.2319C105.672 89.2319 105 88.5604 105 87.7319C105 86.9035 105.672 86.2319 106.5 86.2319C107.328 86.2319 108 86.9035 108 87.7319Z" fill="#F7F7F7" fill-opacity="0.15"/>
<path d="M117 87.7319C117 88.5604 116.328 89.2319 115.5 89.2319C114.672 89.2319 114 88.5604 114 87.7319C114 86.9035 114.672 86.2319 115.5 86.2319C116.328 86.2319 117 86.9035 117 87.7319Z" fill="#F7F7F7" fill-opacity="0.15"/>
<path d="M126 87.7319C126 88.5604 125.328 89.2319 124.5 89.2319C123.672 89.2319 123 88.5604 123 87.7319C123 86.9035 123.672 86.2319 124.5 86.2319C125.328 86.2319 126 86.9035 126 87.7319Z" fill="#F7F7F7" fill-opacity="0.15"/>
<path d="M135 87.7319C135 88.5604 134.328 89.2319 133.5 89.2319C132.672 89.2319 132 88.5604 132 87.7319C132 86.9035 132.672 86.2319 133.5 86.2319C134.328 86.2319 135 86.9035 135 87.7319Z" fill="#F7F7F7" fill-opacity="0.15"/>
<path d="M144 87.7319C144 88.5604 143.328 89.2319 142.5 89.2319C141.672 89.2319 141 88.5604 141 87.7319C141 86.9035 141.672 86.2319 142.5 86.2319C143.328 86.2319 144 86.9035 144 87.7319Z" fill="#F7F7F7" fill-opacity="0.15"/>
<path d="M153 87.7319C153 88.5604 152.328 89.2319 151.5 89.2319C150.672 89.2319 150 88.5604 150 87.7319C150 86.9035 150.672 86.2319 151.5 86.2319C152.328 86.2319 153 86.9035 153 87.7319Z" fill="#F7F7F7" fill-opacity="0.15"/>
<path d="M63 96.7319C63 97.5604 62.3284 98.2319 61.5 98.2319C60.6716 98.2319 60 97.5604 60 96.7319C60 95.9035 60.6716 95.2319 61.5 95.2319C62.3284 95.2319 63 95.9035 63 96.7319Z" fill="#F7F7F7" fill-opacity="0.15"/>
<path d="M72 96.7319C72 97.5604 71.3284 98.2319 70.5 98.2319C69.6716 98.2319 69 97.5604 69 96.7319C69 95.9035 69.6716 95.2319 70.5 95.2319C71.3284 95.2319 72 95.9035 72 96.7319Z" fill="#F7F7F7" fill-opacity="0.15"/>
<path d="M81 96.7319C81 97.5604 80.3284 98.2319 79.5 98.2319C78.6716 98.2319 78 97.5604 78 96.7319C78 95.9035 78.6716 95.2319 79.5 95.2319C80.3284 95.2319 81 95.9035 81 96.7319Z" fill="#F7F7F7" fill-opacity="0.15"/>
<path d="M90 96.7319C90 97.5604 89.3284 98.2319 88.5 98.2319C87.6716 98.2319 87 97.5604 87 96.7319C87 95.9035 87.6716 95.2319 88.5 95.2319C89.3284 95.2319 90 95.9035 90 96.7319Z" fill="#F7F7F7" fill-opacity="0.15"/>
<path d="M99 96.7319C99 97.5604 98.3284 98.2319 97.5 98.2319C96.6716 98.2319 96 97.5604 96 96.7319C96 95.9035 96.6716 95.2319 97.5 95.2319C98.3284 95.2319 99 95.9035 99 96.7319Z" fill="#F7F7F7" fill-opacity="0.15"/>
<path d="M108 96.7319C108 97.5604 107.328 98.2319 106.5 98.2319C105.672 98.2319 105 97.5604 105 96.7319C105 95.9035 105.672 95.2319 106.5 95.2319C107.328 95.2319 108 95.9035 108 96.7319Z" fill="#F7F7F7" fill-opacity="0.15"/>
<path d="M117 96.7319C117 97.5604 116.328 98.2319 115.5 98.2319C114.672 98.2319 114 97.5604 114 96.7319C114 95.9035 114.672 95.2319 115.5 95.2319C116.328 95.2319 117 95.9035 117 96.7319Z" fill="#F7F7F7" fill-opacity="0.15"/>
<path d="M126 96.7319C126 97.5604 125.328 98.2319 124.5 98.2319C123.672 98.2319 123 97.5604 123 96.7319C123 95.9035 123.672 95.2319 124.5 95.2319C125.328 95.2319 126 95.9035 126 96.7319Z" fill="#F7F7F7" fill-opacity="0.15"/>
<path d="M135 96.7319C135 97.5604 134.328 98.2319 133.5 98.2319C132.672 98.2319 132 97.5604 132 96.7319C132 95.9035 132.672 95.2319 133.5 95.2319C134.328 95.2319 135 95.9035 135 96.7319Z" fill="#F7F7F7" fill-opacity="0.15"/>
<path d="M144 96.7319C144 97.5604 143.328 98.2319 142.5 98.2319C141.672 98.2319 141 97.5604 141 96.7319C141 95.9035 141.672 95.2319 142.5 95.2319C143.328 95.2319 144 95.9035 144 96.7319Z" fill="#F7F7F7" fill-opacity="0.15"/>
<path d="M153 96.7319C153 97.5604 152.328 98.2319 151.5 98.2319C150.672 98.2319 150 97.5604 150 96.7319C150 95.9035 150.672 95.2319 151.5 95.2319C152.328 95.2319 153 95.9035 153 96.7319Z" fill="#F7F7F7" fill-opacity="0.15"/>
<path d="M63 105.732C63 106.56 62.3284 107.232 61.5 107.232C60.6716 107.232 60 106.56 60 105.732C60 104.904 60.6716 104.232 61.5 104.232C62.3284 104.232 63 104.904 63 105.732Z" fill="#F7F7F7" fill-opacity="0.15"/>
<path d="M72 105.732C72 106.56 71.3284 107.232 70.5 107.232C69.6716 107.232 69 106.56 69 105.732C69 104.904 69.6716 104.232 70.5 104.232C71.3284 104.232 72 104.904 72 105.732Z" fill="#F7F7F7" fill-opacity="0.15"/>
<path d="M81 105.732C81 106.56 80.3284 107.232 79.5 107.232C78.6716 107.232 78 106.56 78 105.732C78 104.904 78.6716 104.232 79.5 104.232C80.3284 104.232 81 104.904 81 105.732Z" fill="#F7F7F7" fill-opacity="0.15"/>
<path d="M90 105.732C90 106.56 89.3284 107.232 88.5 107.232C87.6716 107.232 87 106.56 87 105.732C87 104.904 87.6716 104.232 88.5 104.232C89.3284 104.232 90 104.904 90 105.732Z" fill="#F7F7F7" fill-opacity="0.15"/>
<path d="M99 105.732C99 106.56 98.3284 107.232 97.5 107.232C96.6716 107.232 96 106.56 96 105.732C96 104.904 96.6716 104.232 97.5 104.232C98.3284 104.232 99 104.904 99 105.732Z" fill="#F7F7F7" fill-opacity="0.15"/>
<path d="M108 105.732C108 106.56 107.328 107.232 106.5 107.232C105.672 107.232 105 106.56 105 105.732C105 104.904 105.672 104.232 106.5 104.232C107.328 104.232 108 104.904 108 105.732Z" fill="#F7F7F7" fill-opacity="0.15"/>
<path d="M117 105.732C117 106.56 116.328 107.232 115.5 107.232C114.672 107.232 114 106.56 114 105.732C114 104.904 114.672 104.232 115.5 104.232C116.328 104.232 117 104.904 117 105.732Z" fill="#F7F7F7" fill-opacity="0.15"/>
<path d="M126 105.732C126 106.56 125.328 107.232 124.5 107.232C123.672 107.232 123 106.56 123 105.732C123 104.904 123.672 104.232 124.5 104.232C125.328 104.232 126 104.904 126 105.732Z" fill="#F7F7F7" fill-opacity="0.15"/>
<path d="M135 105.732C135 106.56 134.328 107.232 133.5 107.232C132.672 107.232 132 106.56 132 105.732C132 104.904 132.672 104.232 133.5 104.232C134.328 104.232 135 104.904 135 105.732Z" fill="#F7F7F7" fill-opacity="0.15"/>
<path d="M144 105.732C144 106.56 143.328 107.232 142.5 107.232C141.672 107.232 141 106.56 141 105.732C141 104.904 141.672 104.232 142.5 104.232C143.328 104.232 144 104.904 144 105.732Z" fill="#F7F7F7" fill-opacity="0.15"/>
<path d="M153 105.732C153 106.56 152.328 107.232 151.5 107.232C150.672 107.232 150 106.56 150 105.732C150 104.904 150.672 104.232 151.5 104.232C152.328 104.232 153 104.904 153 105.732Z" fill="#F7F7F7" fill-opacity="0.15"/>
<path d="M63 114.732C63 115.56 62.3284 116.232 61.5 116.232C60.6716 116.232 60 115.56 60 114.732C60 113.904 60.6716 113.232 61.5 113.232C62.3284 113.232 63 113.904 63 114.732Z" fill="#F7F7F7" fill-opacity="0.15"/>
<path d="M72 114.732C72 115.56 71.3284 116.232 70.5 116.232C69.6716 116.232 69 115.56 69 114.732C69 113.904 69.6716 113.232 70.5 113.232C71.3284 113.232 72 113.904 72 114.732Z" fill="#F7F7F7" fill-opacity="0.15"/>
<path d="M81 114.732C81 115.56 80.3284 116.232 79.5 116.232C78.6716 116.232 78 115.56 78 114.732C78 113.904 78.6716 113.232 79.5 113.232C80.3284 113.232 81 113.904 81 114.732Z" fill="#F7F7F7" fill-opacity="0.15"/>
<path d="M90 114.732C90 115.56 89.3284 116.232 88.5 116.232C87.6716 116.232 87 115.56 87 114.732C87 113.904 87.6716 113.232 88.5 113.232C89.3284 113.232 90 113.904 90 114.732Z" fill="#F7F7F7" fill-opacity="0.15"/>
<path d="M99 114.732C99 115.56 98.3284 116.232 97.5 116.232C96.6716 116.232 96 115.56 96 114.732C96 113.904 96.6716 113.232 97.5 113.232C98.3284 113.232 99 113.904 99 114.732Z" fill="#F7F7F7" fill-opacity="0.15"/>
<path d="M108 114.732C108 115.56 107.328 116.232 106.5 116.232C105.672 116.232 105 115.56 105 114.732C105 113.904 105.672 113.232 106.5 113.232C107.328 113.232 108 113.904 108 114.732Z" fill="#F7F7F7" fill-opacity="0.15"/>
<path d="M117 114.732C117 115.56 116.328 116.232 115.5 116.232C114.672 116.232 114 115.56 114 114.732C114 113.904 114.672 113.232 115.5 113.232C116.328 113.232 117 113.904 117 114.732Z" fill="#F7F7F7" fill-opacity="0.15"/>
<path d="M126 114.732C126 115.56 125.328 116.232 124.5 116.232C123.672 116.232 123 115.56 123 114.732C123 113.904 123.672 113.232 124.5 113.232C125.328 113.232 126 113.904 126 114.732Z" fill="#F7F7F7" fill-opacity="0.15"/>
<path d="M135 114.732C135 115.56 134.328 116.232 133.5 116.232C132.672 116.232 132 115.56 132 114.732C132 113.904 132.672 113.232 133.5 113.232C134.328 113.232 135 113.904 135 114.732Z" fill="#F7F7F7" fill-opacity="0.15"/>
<path d="M144 114.732C144 115.56 143.328 116.232 142.5 116.232C141.672 116.232 141 115.56 141 114.732C141 113.904 141.672 113.232 142.5 113.232C143.328 113.232 144 113.904 144 114.732Z" fill="#F7F7F7" fill-opacity="0.15"/>
<path d="M153 114.732C153 115.56 152.328 116.232 151.5 116.232C150.672 116.232 150 115.56 150 114.732C150 113.904 150.672 113.232 151.5 113.232C152.328 113.232 153 113.904 153 114.732Z" fill="#F7F7F7" fill-opacity="0.15"/>
<path d="M63 123.732C63 124.56 62.3284 125.232 61.5 125.232C60.6716 125.232 60 124.56 60 123.732C60 122.904 60.6716 122.232 61.5 122.232C62.3284 122.232 63 122.904 63 123.732Z" fill="#F7F7F7" fill-opacity="0.15"/>
<path d="M72 123.732C72 124.56 71.3284 125.232 70.5 125.232C69.6716 125.232 69 124.56 69 123.732C69 122.904 69.6716 122.232 70.5 122.232C71.3284 122.232 72 122.904 72 123.732Z" fill="#F7F7F7" fill-opacity="0.15"/>
<path d="M81 123.732C81 124.56 80.3284 125.232 79.5 125.232C78.6716 125.232 78 124.56 78 123.732C78 122.904 78.6716 122.232 79.5 122.232C80.3284 122.232 81 122.904 81 123.732Z" fill="#F7F7F7" fill-opacity="0.15"/>
<path d="M90 123.732C90 124.56 89.3284 125.232 88.5 125.232C87.6716 125.232 87 124.56 87 123.732C87 122.904 87.6716 122.232 88.5 122.232C89.3284 122.232 90 122.904 90 123.732Z" fill="#F7F7F7" fill-opacity="0.15"/>
<path d="M99 123.732C99 124.56 98.3284 125.232 97.5 125.232C96.6716 125.232 96 124.56 96 123.732C96 122.904 96.6716 122.232 97.5 122.232C98.3284 122.232 99 122.904 99 123.732Z" fill="#F7F7F7" fill-opacity="0.15"/>
<path d="M108 123.732C108 124.56 107.328 125.232 106.5 125.232C105.672 125.232 105 124.56 105 123.732C105 122.904 105.672 122.232 106.5 122.232C107.328 122.232 108 122.904 108 123.732Z" fill="#F7F7F7" fill-opacity="0.15"/>
<path d="M117 123.732C117 124.56 116.328 125.232 115.5 125.232C114.672 125.232 114 124.56 114 123.732C114 122.904 114.672 122.232 115.5 122.232C116.328 122.232 117 122.904 117 123.732Z" fill="#F7F7F7" fill-opacity="0.15"/>
<path d="M126 123.732C126 124.56 125.328 125.232 124.5 125.232C123.672 125.232 123 124.56 123 123.732C123 122.904 123.672 122.232 124.5 122.232C125.328 122.232 126 122.904 126 123.732Z" fill="#F7F7F7" fill-opacity="0.15"/>
<path d="M135 123.732C135 124.56 134.328 125.232 133.5 125.232C132.672 125.232 132 124.56 132 123.732C132 122.904 132.672 122.232 133.5 122.232C134.328 122.232 135 122.904 135 123.732Z" fill="#F7F7F7" fill-opacity="0.15"/>
<path d="M144 123.732C144 124.56 143.328 125.232 142.5 125.232C141.672 125.232 141 124.56 141 123.732C141 122.904 141.672 122.232 142.5 122.232C143.328 122.232 144 122.904 144 123.732Z" fill="#F7F7F7" fill-opacity="0.15"/>
<path d="M153 123.732C153 124.56 152.328 125.232 151.5 125.232C150.672 125.232 150 124.56 150 123.732C150 122.904 150.672 122.232 151.5 122.232C152.328 122.232 153 122.904 153 123.732Z" fill="#F7F7F7" fill-opacity="0.15"/>
<path d="M63 132.732C63 133.56 62.3284 134.232 61.5 134.232C60.6716 134.232 60 133.56 60 132.732C60 131.904 60.6716 131.232 61.5 131.232C62.3284 131.232 63 131.904 63 132.732Z" fill="#F7F7F7" fill-opacity="0.15"/>
<path d="M72 132.732C72 133.56 71.3284 134.232 70.5 134.232C69.6716 134.232 69 133.56 69 132.732C69 131.904 69.6716 131.232 70.5 131.232C71.3284 131.232 72 131.904 72 132.732Z" fill="#F7F7F7" fill-opacity="0.15"/>
<path d="M81 132.732C81 133.56 80.3284 134.232 79.5 134.232C78.6716 134.232 78 133.56 78 132.732C78 131.904 78.6716 131.232 79.5 131.232C80.3284 131.232 81 131.904 81 132.732Z" fill="#F7F7F7" fill-opacity="0.15"/>
<path d="M90 132.732C90 133.56 89.3284 134.232 88.5 134.232C87.6716 134.232 87 133.56 87 132.732C87 131.904 87.6716 131.232 88.5 131.232C89.3284 131.232 90 131.904 90 132.732Z" fill="#F7F7F7" fill-opacity="0.15"/>
<path d="M99 132.732C99 133.56 98.3284 134.232 97.5 134.232C96.6716 134.232 96 133.56 96 132.732C96 131.904 96.6716 131.232 97.5 131.232C98.3284 131.232 99 131.904 99 132.732Z" fill="#F7F7F7" fill-opacity="0.15"/>
<path d="M108 132.732C108 133.56 107.328 134.232 106.5 134.232C105.672 134.232 105 133.56 105 132.732C105 131.904 105.672 131.232 106.5 131.232C107.328 131.232 108 131.904 108 132.732Z" fill="#F7F7F7" fill-opacity="0.15"/>
<path d="M117 132.732C117 133.56 116.328 134.232 115.5 134.232C114.672 134.232 114 133.56 114 132.732C114 131.904 114.672 131.232 115.5 131.232C116.328 131.232 117 131.904 117 132.732Z" fill="#F7F7F7" fill-opacity="0.15"/>
<path d="M126 132.732C126 133.56 125.328 134.232 124.5 134.232C123.672 134.232 123 133.56 123 132.732C123 131.904 123.672 131.232 124.5 131.232C125.328 131.232 126 131.904 126 132.732Z" fill="#F7F7F7" fill-opacity="0.15"/>
<path d="M135 132.732C135 133.56 134.328 134.232 133.5 134.232C132.672 134.232 132 133.56 132 132.732C132 131.904 132.672 131.232 133.5 131.232C134.328 131.232 135 131.904 135 132.732Z" fill="#F7F7F7" fill-opacity="0.15"/>
<path d="M144 132.732C144 133.56 143.328 134.232 142.5 134.232C141.672 134.232 141 133.56 141 132.732C141 131.904 141.672 131.232 142.5 131.232C143.328 131.232 144 131.904 144 132.732Z" fill="#F7F7F7" fill-opacity="0.15"/>
<path d="M153 132.732C153 133.56 152.328 134.232 151.5 134.232C150.672 134.232 150 133.56 150 132.732C150 131.904 150.672 131.232 151.5 131.232C152.328 131.232 153 131.904 153 132.732Z" fill="#F7F7F7" fill-opacity="0.15"/>
</g>
<rect x="1" y="1.46387" width="118" height="118" rx="59" stroke="url(#paint0_linear)" stroke-width="2"/>
<path d="M31.3337 56.2463L31.3338 56.2536C31.385 62.0713 32.7331 66.8987 35.1658 70.3315C37.6338 73.8141 41.1901 75.7973 45.3184 75.7973C47.0555 75.7973 48.616 75.24 49.9842 74.5299C51.3001 73.8469 52.5583 72.9554 53.6868 72.1558L53.7752 72.0932C56.2672 70.328 58.0985 69.1251 60.0064 69.1251C61.9027 69.1251 63.644 70.3071 66.1034 72.0742C66.1533 72.1101 66.2034 72.1461 66.254 72.1825C68.4324 73.7491 71.2495 75.775 74.6943 75.775C78.8226 75.775 82.3791 73.7919 84.8457 70.3086C87.2769 66.8753 88.6214 62.0472 88.6657 56.2289L88.6657 56.2279C88.6905 52.7294 88.2254 49.6244 85.8885 47.5849C83.6591 45.6391 80.2209 45.1306 75.7863 45.1306C71.028 45.1306 67.9041 46.1153 65.4447 47.0878C64.9494 47.2837 64.5042 47.4665 64.0964 47.634C62.3944 48.3329 61.3429 48.7648 60.0064 48.7648C58.6701 48.7648 57.6194 48.3331 55.9183 47.6341C55.5107 47.4667 55.0657 47.2838 54.5705 47.0879C52.1122 46.1154 48.9892 45.1306 44.2309 45.1306C39.7959 45.1306 36.3568 45.6392 34.1246 47.5878C31.7868 49.6287 31.3157 52.7372 31.3337 56.2463ZM48.3954 57.6002L48.6288 57.6219L48.8609 57.5891C49.9326 57.4376 51.0225 57.6933 51.9164 58.3068C52.5125 58.716 52.9928 59.2647 53.3199 59.899C53.1059 59.9896 52.846 60.0859 52.5403 60.1823C51.26 60.5861 49.5584 60.8726 48.0217 60.8726H47.9901L47.9585 60.8736C46.9253 60.9062 45.8974 60.7121 44.9466 60.3046C44.4593 60.0958 43.9983 59.8335 43.5716 59.5234C44.0021 59.0326 44.5153 58.6165 45.0912 58.296C46.0978 57.7358 47.2495 57.4934 48.3954 57.6002ZM71.1491 57.5887L71.3828 57.6221L71.6179 57.6001C72.7635 57.493 73.9149 57.735 74.9215 58.2946C75.4973 58.6147 76.0105 59.0303 76.441 59.5207C76.0129 59.8323 75.5502 60.0958 75.0609 60.3054C74.1083 60.7135 73.0781 60.9074 72.0429 60.8737L72.0104 60.8726H71.9778C70.4403 60.8726 68.7384 60.5869 67.4585 60.1838C67.1527 60.0875 66.8929 59.9913 66.679 59.9007C67.0071 59.2643 67.4892 58.7141 68.0875 58.3041C68.9835 57.6904 70.0756 57.4354 71.1491 57.5887Z" stroke="url(#paint1_linear)" stroke-width="4"/>
<defs>
<linearGradient id="paint0_linear" x1="120" y1="120.464" x2="-13.0441" y2="103.644" gradientUnits="userSpaceOnUse">
<stop stop-color="#F9096C"/>
<stop offset="1" stop-color="#FE6C6A"/>
</linearGradient>
<linearGradient id="paint1_linear" x1="86.6666" y1="73.7973" x2="30.2006" y2="59.5205" gradientUnits="userSpaceOnUse">
<stop stop-color="#F9096C"/>
<stop offset="1" stop-color="#FE6C6A"/>
</linearGradient>
<clipPath id="clip0">
<path d="M60 41.2319H160V141.232H60V41.2319Z" fill="white"/>
</clipPath>
</defs>
</svg>
