<svg width="100" height="100" viewBox="0 0 100 100" fill="none" xmlns="http://www.w3.org/2000/svg">
<path fill-rule="evenodd" clip-rule="evenodd" d="M78 64C70.268 64 64 70.268 64 78C64 85.732 70.268 92 78 92C85.732 92 92 85.732 92 78C92 70.268 85.732 64 78 64ZM68 28C64.6863 28 62 30.6863 62 34C62 37.3137 64.6863 40 68 40C71.3137 40 74 37.3137 74 34C74 30.6863 71.3137 28 68 28ZM12 66C12 61.5817 15.5817 58 20 58C24.4183 58 28 61.5817 28 66C28 70.4183 24.4183 74 20 74C15.5817 74 12 70.4183 12 66ZM30 18C27.7909 18 26 19.7909 26 22C26 24.2091 27.7909 26 30 26C32.2091 26 34 24.2091 34 22C34 19.7909 32.2091 18 30 18Z" fill="#F7F7F7" fill-opacity="0.1"/>
<path d="M76 38H71.64C71.86 37.38 72 36.7 72 36C72 32.68 69.32 30 66 30C63.9 30 62.08 31.08 61 32.7L60 34.04L59 32.68C57.92 31.08 56.1 30 54 30C50.68 30 48 32.68 48 36C48 36.7 48.14 37.38 48.36 38H44C41.78 38 40.02 39.78 40.02 42L40 64C40 66.22 41.78 68 44 68H76C78.22 68 80 66.22 80 64V42C80 39.78 78.22 38 76 38ZM66 34C67.1 34 68 34.9 68 36C68 37.1 67.1 38 66 38C64.9 38 64 37.1 64 36C64 34.9 64.9 34 66 34ZM54 34C55.1 34 56 34.9 56 36C56 37.1 55.1 38 54 38C52.9 38 52 37.1 52 36C52 34.9 52.9 34 54 34ZM74 64H46C44.9 64 44 63.1 44 62V60H76V62C76 63.1 75.1 64 74 64ZM76 54H44V44C44 42.9 44.9 42 46 42H54.16L51.2 46.04C50.54 46.94 50.74 48.2 51.64 48.84C52.52 49.48 53.78 49.28 54.42 48.4L60 40.8L65.58 48.4C66.22 49.28 67.48 49.48 68.36 48.84C69.26 48.2 69.46 46.94 68.8 46.04L65.84 42H74C75.1 42 76 42.9 76 44V54Z" fill="url(#paint0_linear)"/>
<defs>
<linearGradient id="paint0_linear" x1="80" y1="68" x2="35.7272" y2="62.1085" gradientUnits="userSpaceOnUse">
<stop stop-color="#F9096C"/>
<stop offset="1" stop-color="#FE6C6A"/>
</linearGradient>
</defs>
</svg>
