<svg width="100" height="100" viewBox="0 0 100 100" fill="none" xmlns="http://www.w3.org/2000/svg">
<path fill-rule="evenodd" clip-rule="evenodd" d="M78 64C70.268 64 64 70.268 64 78C64 85.732 70.268 92 78 92C85.732 92 92 85.732 92 78C92 70.268 85.732 64 78 64ZM68 28C64.6863 28 62 30.6863 62 34C62 37.3137 64.6863 40 68 40C71.3137 40 74 37.3137 74 34C74 30.6863 71.3137 28 68 28ZM12 66C12 61.5817 15.5817 58 20 58C24.4183 58 28 61.5817 28 66C28 70.4183 24.4183 74 20 74C15.5817 74 12 70.4183 12 66ZM30 18C27.7909 18 26 19.7909 26 22C26 24.2091 27.7909 26 30 26C32.2091 26 34 24.2091 34 22C34 19.7909 32.2091 18 30 18Z" fill="#F7F7F7" fill-opacity="0.1"/>
<path fill-rule="evenodd" clip-rule="evenodd" d="M50.9942 55.027C55.6019 55.027 59.3371 51.2918 59.3371 46.6842C59.3371 42.0765 55.6019 38.3413 50.9942 38.3413C46.3866 38.3413 42.6514 42.0765 42.6514 46.6842C42.6514 51.2918 46.3866 55.027 50.9942 55.027ZM52.9028 58.8804C58.8133 57.9629 63.3371 52.8518 63.3371 46.6842C63.3371 39.8674 57.811 34.3413 50.9942 34.3413C44.1775 34.3413 38.6514 39.8674 38.6514 46.6842C38.6514 52.7881 43.0821 57.8571 48.9028 58.8506L48.9028 62.5127H45.3256C44.2211 62.5127 43.3256 63.4081 43.3256 64.5127C43.3256 65.6173 44.2211 66.5127 45.3256 66.5127H48.9028L48.9028 69.8156C48.9028 70.9202 49.7982 71.8156 50.9028 71.8156C52.0074 71.8156 52.9028 70.9202 52.9028 69.8156L52.9028 66.5127H56.2971C57.4016 66.5127 58.2971 65.6173 58.2971 64.5127C58.2971 63.4081 57.4016 62.5127 56.2971 62.5127H52.9028L52.9028 58.8804Z" fill="url(#paint0_linear)"/>
<path fill-rule="evenodd" clip-rule="evenodd" d="M57.4303 40.9263C60.6884 37.6682 65.9708 37.6683 69.2289 40.9263C72.487 44.1844 72.487 49.4668 69.2289 52.7249C65.9708 55.983 60.6884 55.983 57.4303 52.7249C54.1722 49.4668 54.1722 44.1844 57.4303 40.9263ZM70.7653 36.972C65.9286 33.3126 59.0118 33.6879 54.6019 38.0979C49.7817 42.9181 49.7817 50.7332 54.6019 55.5533C59.4221 60.3735 67.2371 60.3735 72.0573 55.5533C76.3241 51.2865 76.814 44.673 73.5268 39.8673L78.9714 34.4227L78.9714 40.9713C78.9714 42.0759 79.8668 42.9713 80.9714 42.9713C82.076 42.9713 82.9714 42.0759 82.9714 40.9713L82.9714 30L82.9714 29.9999C82.9714 28.8953 82.076 27.9999 80.9714 27.9999L80.9496 28L70 28C68.8954 28 68 28.8954 68 30C68 31.1046 68.8954 32 70 32L75.7373 32L70.7653 36.972Z" fill="url(#paint1_linear)"/>
<defs>
<linearGradient id="paint0_linear" x1="63.3371" y1="71.8156" x2="35.7221" y2="69.5159" gradientUnits="userSpaceOnUse">
<stop stop-color="#F9096C"/>
<stop offset="1" stop-color="#FE6C6A"/>
</linearGradient>
<linearGradient id="paint1_linear" x1="73.2499" y1="19.4499" x2="91.2104" y2="40.5598" gradientUnits="userSpaceOnUse">
<stop stop-color="#F9096C"/>
<stop offset="1" stop-color="#FE6C6A"/>
</linearGradient>
</defs>
</svg>
