<svg width="100" height="100" viewBox="0 0 100 100" fill="none" xmlns="http://www.w3.org/2000/svg">
<path fill-rule="evenodd" clip-rule="evenodd" d="M78 64C70.268 64 64 70.268 64 78C64 85.732 70.268 92 78 92C85.732 92 92 85.732 92 78C92 70.268 85.732 64 78 64ZM68 28C64.6863 28 62 30.6863 62 34C62 37.3137 64.6863 40 68 40C71.3137 40 74 37.3137 74 34C74 30.6863 71.3137 28 68 28ZM12 66C12 61.5817 15.5817 58 20 58C24.4183 58 28 61.5817 28 66C28 70.4183 24.4183 74 20 74C15.5817 74 12 70.4183 12 66ZM30 18C27.7909 18 26 19.7909 26 22C26 24.2091 27.7909 26 30 26C32.2091 26 34 24.2091 34 22C34 19.7909 32.2091 18 30 18Z" fill="#F7F7F7" fill-opacity="0.1"/>
<g clip-path="url(#clip0)">
<path d="M82 48.02L72 48C70.9 48 70 48.9 70 50V68C70 69.1 70.9 70 72 70H82C83.1 70 84 69.1 84 68V50C84 48.9 83.1 48.02 82 48.02ZM82 66H72V52H82V66ZM76 30H40C37.8 30 36 31.8 36 34V58C36 60.2 37.8 62 40 62H54V66H52C50.9 66 50 66.9 50 68C50 69.1 50.9 70 52 70H64C65.1 70 66 69.1 66 68C66 66.9 65.1 66 64 66H62V62H64C65.1 62 66 61.1 66 60C66 58.9 65.1 58 64 58H42C40.9 58 40 57.1 40 56V36C40 34.9 40.9 34 42 34H74C75.1 34 76 34.9 76 36V42C76 43.1 76.9 44 78 44C79.1 44 80 43.1 80 42V34C80 31.8 78.2 30 76 30Z" fill="url(#paint0_linear)"/>
</g>
<defs>
<linearGradient id="paint0_linear" x1="84" y1="70" x2="31.1482" y2="61.9822" gradientUnits="userSpaceOnUse">
<stop stop-color="#F9096C"/>
<stop offset="1" stop-color="#FE6C6A"/>
</linearGradient>
<clipPath id="clip0">
<path d="M36 26H84V74H36V26Z" fill="white"/>
</clipPath>
</defs>
</svg>
