<svg width="49" height="49" viewBox="0 0 49 49" fill="none" xmlns="http://www.w3.org/2000/svg">
<path fill-rule="evenodd" clip-rule="evenodd" d="M16.4999 8.49997L16.4988 8.49998L16.4952 8.50003L16.4893 8.50019L16.4809 8.50048L16.4701 8.50097L16.4569 8.50169L16.4414 8.50271L16.4235 8.50405L16.4033 8.50578L16.3807 8.50793L16.3559 8.51055L16.3287 8.51369L16.2992 8.5174L16.2675 8.52171L16.2336 8.52667L16.1974 8.53232L16.159 8.53871L16.1185 8.54587L16.0759 8.55386L16.0311 8.5627L15.9843 8.57244L15.9354 8.58311L15.8845 8.59476L15.8317 8.60742L15.7769 8.62112L15.7202 8.63589L15.6617 8.65178L15.6013 8.66882L15.5392 8.68703L15.4753 8.70644L15.4097 8.72708L15.3425 8.74899L15.2737 8.77218L15.2033 8.79668L15.1314 8.82251L15.0581 8.8497L14.9833 8.87827L14.9072 8.90823L14.8298 8.9396L14.7511 8.9724L14.6712 9.00665L14.5902 9.04235L14.5081 9.07953L14.4249 9.11818L14.3407 9.15832L14.2556 9.19995L14.1697 9.24309L14.0829 9.28773L13.9953 9.33388L13.907 9.38154L13.8181 9.4307L13.7285 9.48137L13.6385 9.53354L13.5479 9.58721L13.4569 9.64237L13.3656 9.69901L13.2739 9.75711L13.182 9.81668L13.0899 9.87769L12.9976 9.94014L12.9053 10.004L12.8129 10.0692L12.7206 10.1359L12.6283 10.2039L12.5362 10.2732L12.4442 10.3438L12.3525 10.4157L12.2611 10.4889L12.17 10.5633L12.0794 10.6389L11.9892 10.7156L11.8995 10.7935L11.8103 10.8725L11.7217 10.9526L11.6338 11.0337L11.5466 11.1157L11.4601 11.1988L11.3744 11.2827L11.2895 11.3675L11.2055 11.4532L11.1224 11.5396L11.0402 11.6268L10.959 11.7147L10.8789 11.8032L10.7998 11.8923L10.7218 11.982L10.645 12.0721L10.5693 12.1628L10.4948 12.2538L10.4215 12.3452L10.3495 12.4369L10.2788 12.5288L10.2094 12.6209L10.1413 12.7132L10.0745 12.8055L10.0092 12.8979L9.94521 12.9902L9.88265 13.0825L9.82152 13.1746L9.76184 13.2666L9.70362 13.3583L9.64686 13.4496L9.59159 13.5406L9.5378 13.6312L9.48551 13.7213L9.43472 13.8109L9.38543 13.8999L9.33766 13.9882L9.29139 14.0759L9.24663 14.1627L9.20337 14.2488L9.16162 14.334L9.12136 14.4182L9.08259 14.5014L9.0453 14.5837L9.00948 14.6648L8.97512 14.7448L8.9422 14.8235L8.91071 14.9011L8.88064 14.9773L8.85196 15.0521L8.82467 15.1256L8.79872 15.1976L8.77412 15.2681L8.75082 15.337L8.72882 15.4044L8.70807 15.4701L8.68857 15.5341L8.67026 15.5964L8.65314 15.6569L8.63716 15.7156L8.62229 15.7724L8.60851 15.8274L8.59577 15.8804L8.58404 15.9314L8.57329 15.9804L8.56348 16.0274L8.55457 16.0723L8.54652 16.1152L8.53929 16.1559L8.53284 16.1944L8.52713 16.2307L8.52212 16.2649L8.51776 16.2968L8.51401 16.3264L8.51082 16.3537L8.50816 16.3788L8.50597 16.4016L8.50421 16.422L8.50284 16.44L8.5018 16.4557L8.50105 16.4691L8.50055 16.4801L8.50024 16.4886L8.50008 16.4948L8.50002 16.4986L8.50001 16.5L8.5 16.499L8.49995 16.4956L8.49981 16.4898L8.49953 16.4816L8.49906 16.471L8.49835 16.458L8.49736 16.4427L8.49605 16.425L8.49435 16.405L8.49224 16.3826L8.48965 16.3579L8.48655 16.3309L8.4829 16.3016L8.47864 16.2701L8.47373 16.2363L8.46813 16.2003L8.4618 16.1621L8.4547 16.1218L8.44678 16.0793L8.43801 16.0347L8.42835 15.988L8.41775 15.9393L8.40618 15.8886L8.39361 15.8359L8.37999 15.7813L8.3653 15.7248L8.3495 15.6664L8.33256 15.6061L8.31445 15.5441L8.29513 15.4804L8.27458 15.415L8.25278 15.3479L8.22969 15.2792L8.2053 15.2089L8.17957 15.1372L8.15249 15.0639L8.12404 14.9893L8.09419 14.9133L8.06293 14.836L8.03024 14.7574L7.99611 14.6776L7.96052 14.5967L7.92346 14.5146L7.88493 14.4315L7.84491 14.3474L7.80339 14.2624L7.76038 14.1765L7.71586 14.0898L7.66983 14.0022L7.62229 13.914L7.57325 13.8251L7.5227 13.7357L7.47064 13.6456L7.41709 13.5551L7.36206 13.4642L7.30554 13.3728L7.24754 13.2812L7.18809 13.1893L7.12719 13.0972L7.06487 13.005L7.00112 12.9126L6.93598 12.8202L6.86946 12.7279L6.80158 12.6356L6.73237 12.5435L6.66184 12.4515L6.59004 12.3598L6.51697 12.2683L6.44267 12.1772L6.36717 12.0866L6.2905 11.9963L6.2127 11.9065L6.13379 11.8173L6.05381 11.7287L5.9728 11.6407L5.8908 11.5535L5.80784 11.4669L5.72396 11.3811L5.63921 11.2962L5.55363 11.2121L5.46726 11.1289L5.38015 11.0467L5.29233 10.9654L5.20387 10.8852L5.11479 10.806L5.02517 10.728L4.93503 10.651L4.84443 10.5752L4.75343 10.5006L4.66208 10.4273L4.57042 10.3552L4.47851 10.2843L4.3864 10.2148L4.29415 10.1466L4.20181 10.0798L4.10943 10.0143L4.01708 9.95021L3.9248 9.88754L3.83266 9.8263L3.74071 9.7665L3.64901 9.70816L3.5576 9.65129L3.46656 9.5959L3.37594 9.54199L3.28579 9.48958L3.19617 9.43867L3.10713 9.38927L3.01875 9.34137L2.93106 9.29498L2.84413 9.2501L2.75802 9.20672L2.67278 9.16485L2.58846 9.12447L2.50512 9.08558L2.42282 9.04818L2.34161 9.01224L2.26154 8.97776L2.18267 8.94473L2.10504 8.91313L2.02872 8.88294L1.95375 8.85416L1.88018 8.82675L1.80806 8.8007L1.73745 8.77599L1.66838 8.75259L1.6009 8.73049L1.53507 8.70964L1.47092 8.69004L1.40849 8.67164L1.34784 8.65442L1.28901 8.63835L1.23202 8.6234L1.17693 8.60953L1.12377 8.59671L1.07257 8.5849L1.02338 8.57408L0.976222 8.56419L0.931132 8.55521L0.888143 8.54709L0.847283 8.5398L0.80858 8.53329L0.772063 8.52752L0.737755 8.52245L0.705682 8.51804L0.675864 8.51425L0.648324 8.51102L0.62308 8.50832L0.600149 8.50609L0.579549 8.5043L0.561292 8.5029L0.545393 8.50183L0.531862 8.50107L0.520708 8.50054L0.51194 8.50022L0.505563 8.50005L0.501582 8.49998L0.5 8.49997L0.500818 8.49996L0.504035 8.49992L0.509649 8.49979L0.517656 8.49952L0.528051 8.49906L0.540825 8.49838L0.555972 8.49741L0.573478 8.49612L0.593334 8.49446L0.615524 8.49238L0.640033 8.48984L0.666844 8.48678L0.695938 8.48317L0.727295 8.47896L0.760894 8.47411L0.79671 8.46857L0.834719 8.4623L0.874895 8.45526L0.91721 8.44741L0.961633 8.4387L1.00814 8.42911L1.05668 8.41859L1.10725 8.4071L1.15979 8.39461L1.21427 8.38108L1.27065 8.36647L1.3289 8.35076L1.38898 8.33391L1.45084 8.31589L1.51445 8.29667L1.57975 8.27623L1.64671 8.25453L1.71528 8.23154L1.78541 8.20725L1.85705 8.18163L1.93016 8.15466L2.00469 8.12631L2.08059 8.09658L2.1578 8.06543L2.23628 8.03286L2.31598 7.99884L2.39683 7.96337L2.47879 7.92643L2.5618 7.88802L2.64582 7.84811L2.73077 7.80672L2.81661 7.76382L2.90329 7.71942L2.99074 7.67351L3.07891 7.62609L3.16774 7.57717L3.25718 7.52674L3.34717 7.47481L3.43765 7.42137L3.52856 7.36645L3.61986 7.31005L3.71147 7.25218L3.80335 7.19284L3.89544 7.13206L3.98768 7.06984L4.08001 7.00621L4.17238 6.94118L4.26474 6.87477L4.35703 6.807L4.44918 6.73789L4.54116 6.66747L4.63291 6.59576L4.72437 6.5228L4.81549 6.44859L4.90622 6.37319L4.99651 6.29661L5.0863 6.2189L5.17556 6.14008L5.26422 6.06018L5.35225 5.97925L5.43959 5.89733L5.5262 5.81444L5.61204 5.73064L5.69706 5.64596L5.78122 5.56044L5.86448 5.47413L5.94679 5.38707L6.02812 5.29931L6.10843 5.2109L6.18768 5.12187L6.26584 5.03228L6.34288 4.94219L6.41875 4.85163L6.49343 4.76066L6.5669 4.66933L6.63911 4.57769L6.71005 4.48579L6.77968 4.3937L6.84798 4.30146L6.91494 4.20912L6.98052 4.11675L7.04471 4.02439L7.1075 3.93211L7.16885 3.83996L7.22876 3.74799L7.28722 3.65626L7.34421 3.56483L7.39972 3.47376L7.45375 3.3831L7.50628 3.29291L7.55731 3.20324L7.60683 3.11416L7.65485 3.02572L7.70136 2.93798L7.74636 2.85099L7.78985 2.76481L7.83185 2.67949L7.87234 2.5951L7.91135 2.51168L7.94888 2.4293L7.98493 2.348L8.01952 2.26783L8.05267 2.18887L8.08438 2.11114L8.11468 2.03471L8.14358 1.95963L8.17109 1.88595L8.19725 1.81371L8.22207 1.74298L8.24557 1.67378L8.26778 1.60618L8.28872 1.54021L8.30842 1.47592L8.32692 1.41336L8.34423 1.35257L8.36039 1.29359L8.37543 1.23645L8.38938 1.18121L8.40229 1.12789L8.41417 1.07654L8.42507 1.02718L8.43503 0.979863L8.44408 0.934608L8.45227 0.89145L8.45963 0.85042L8.4662 0.811545L8.47202 0.774852L8.47715 0.740368L8.48161 0.708115L8.48545 0.678117L8.48872 0.650395L8.49147 0.624967L8.49373 0.601852L8.49555 0.581065L8.49698 0.562622L8.49807 0.546534L8.49886 0.532814L8.4994 0.521471L8.49974 0.512512L8.49992 0.505945L8.49999 0.501773L8.50001 0.5L8.50001 0.500627L8.50005 0.503653L8.50018 0.509076L8.50043 0.516893L8.50087 0.527097L8.50153 0.539683L8.50247 0.554641L8.50374 0.57196L8.50537 0.591629L8.50741 0.613633L8.50992 0.637958L8.51293 0.664587L8.5165 0.6935L8.52066 0.724678L8.52546 0.758099L8.53094 0.793739L8.53715 0.831575L8.54413 0.871579L8.55191 0.913724L8.56055 0.957981L8.57007 1.00432L8.58051 1.05271L8.59193 1.10311L8.60434 1.15549L8.61778 1.20982L8.6323 1.26606L8.64792 1.32416L8.66468 1.38409L8.68261 1.44581L8.70173 1.50928L8.72208 1.57445L8.74368 1.64128L8.76656 1.70972L8.79074 1.77973L8.81626 1.85125L8.84312 1.92425L8.87135 1.99867L8.90098 2.07446L8.93201 2.15157L8.96447 2.22995L8.99837 2.30955L9.03373 2.39031L9.07055 2.47219L9.10885 2.55512L9.14863 2.63905L9.18991 2.72393L9.23269 2.80971L9.27697 2.89632L9.32276 2.98371L9.37005 3.07182L9.41886 3.1606L9.46917 3.25L9.52098 3.33994L9.57429 3.43039L9.62909 3.52127L9.68538 3.61254L9.74314 3.70413L9.80236 3.79599L9.86302 3.88806L9.92513 3.98029L9.98865 4.07262L10.0536 4.16499L10.1199 4.25735L10.1875 4.34964L10.2565 4.44181L10.3269 4.53381L10.3985 4.62558L10.4713 4.71706L10.5454 4.80821L10.6207 4.89897L10.6972 4.9893L10.7748 5.07913L10.8536 5.16843L10.9334 5.25715L11.0142 5.34523L11.0961 5.43262L11.1789 5.5193L11.2626 5.6052L11.3472 5.69028L11.4327 5.77451L11.5189 5.85784L11.6059 5.94023L11.6937 6.02164L11.782 6.10203L11.871 6.18137L11.9605 6.25962L12.0506 6.33675L12.1411 6.41271L12.2321 6.48749L12.3234 6.56105L12.415 6.63337L12.5069 6.70441L12.5989 6.77414L12.6912 6.84256L12.7835 6.90962L12.8759 6.97531L12.9682 7.03962L13.0605 7.10251L13.1527 7.16398L13.2447 7.22401L13.3364 7.28258L13.4279 7.33969L13.519 7.39532L13.6097 7.44946L13.6999 7.50211L13.7896 7.55326L13.8787 7.60291L13.9672 7.65104L14.055 7.69767L14.1421 7.74279L14.2283 7.78641L14.3137 7.82852L14.3982 7.86914L14.4817 7.90826L14.5642 7.9459L14.6455 7.98207L14.7258 8.01678L14.8049 8.05005L14.8827 8.08187L14.9592 8.11228L15.0344 8.14129L15.1082 8.16892L15.1806 8.19518L15.2514 8.2201L15.3207 8.24371L15.3885 8.26602L15.4546 8.28706L15.519 8.30686L15.5817 8.32545L15.6426 8.34285L15.7018 8.35911L15.759 8.37423L15.8144 8.38827L15.8679 8.40126L15.9194 8.41322L15.9689 8.4242L16.0164 8.43424L16.0618 8.44336L16.1052 8.45161L16.1464 8.45903L16.1854 8.46566L16.2223 8.47155L16.2569 8.47672L16.2894 8.48124L16.3196 8.48513L16.3475 8.48844L16.3731 8.49123L16.3964 8.49352L16.4173 8.49538L16.436 8.49684L16.4522 8.49796L16.4662 8.49877L16.4777 8.49933L16.4868 8.49968L16.4936 8.49987L16.498 8.49995L16.4999 8.49997ZM16.4988 40.5L16.4952 40.5L16.4893 40.5002L16.4809 40.5005L16.4701 40.501L16.4569 40.5017L16.4414 40.5027L16.4235 40.5041L16.4033 40.5058L16.3807 40.5079L16.3559 40.5106L16.3287 40.5137L16.2992 40.5174L16.2675 40.5217L16.2336 40.5267L16.1974 40.5323L16.159 40.5387L16.1185 40.5459L16.0759 40.5539L16.0311 40.5627L15.9843 40.5724L15.9354 40.5831L15.8845 40.5948L15.8317 40.6074L15.7769 40.6211L15.7202 40.6359L15.6617 40.6518L15.6013 40.6688L15.5392 40.687L15.4753 40.7064L15.4097 40.7271L15.3425 40.749L15.2737 40.7722L15.2033 40.7967L15.1314 40.8225L15.0581 40.8497L14.9833 40.8783L14.9072 40.9082L14.8298 40.9396L14.7511 40.9724L14.6712 41.0066L14.5902 41.0424L14.5081 41.0795L14.4249 41.1182L14.3407 41.1583L14.2556 41.2L14.1697 41.2431L14.0829 41.2877L13.9953 41.3339L13.907 41.3815L13.8181 41.4307L13.7285 41.4814L13.6385 41.5335L13.5479 41.5872L13.4569 41.6424L13.3656 41.699L13.2739 41.7571L13.182 41.8167L13.0899 41.8777L12.9976 41.9401L12.9053 42.004L12.8129 42.0692L12.7206 42.1359L12.6283 42.2039L12.5362 42.2732L12.4442 42.3438L12.3525 42.4157L12.2611 42.4889L12.17 42.5633L12.0794 42.6389L11.9892 42.7156L11.8995 42.7935L11.8103 42.8725L11.7217 42.9526L11.6338 43.0337L11.5466 43.1157L11.4601 43.1988L11.3744 43.2827L11.2895 43.3675L11.2055 43.4532L11.1224 43.5396L11.0402 43.6268L10.959 43.7147L10.8789 43.8032L10.7998 43.8923L10.7218 43.982L10.645 44.0721L10.5693 44.1628L10.4948 44.2538L10.4215 44.3452L10.3495 44.4369L10.2788 44.5288L10.2094 44.6209L10.1413 44.7132L10.0745 44.8055L10.0092 44.8979L9.94521 44.9902L9.88265 45.0825L9.82152 45.1746L9.76184 45.2666L9.70362 45.3583L9.64686 45.4496L9.59159 45.5406L9.5378 45.6312L9.48551 45.7213L9.43472 45.8109L9.38543 45.8999L9.33766 45.9882L9.29139 46.0759L9.24663 46.1627L9.20337 46.2488L9.16162 46.334L9.12136 46.4182L9.08259 46.5014L9.0453 46.5837L9.00948 46.6648L8.97512 46.7448L8.9422 46.8235L8.91071 46.9011L8.88064 46.9773L8.85196 47.0521L8.82467 47.1256L8.79872 47.1976L8.77412 47.2681L8.75082 47.337L8.72882 47.4044L8.70807 47.4701L8.68857 47.5341L8.67026 47.5964L8.65314 47.6569L8.63716 47.7156L8.62229 47.7724L8.60851 47.8274L8.59577 47.8804L8.58404 47.9314L8.57329 47.9804L8.56348 48.0274L8.55457 48.0723L8.54652 48.1152L8.53929 48.1559L8.53284 48.1944L8.52713 48.2307L8.52212 48.2649L8.51776 48.2968L8.51401 48.3264L8.51082 48.3537L8.50816 48.3788L8.50597 48.4016L8.50421 48.422L8.50284 48.44L8.5018 48.4557L8.50105 48.4691L8.50055 48.4801L8.50024 48.4886L8.50008 48.4948L8.50002 48.4986L8.50001 48.5L8.5 48.499L8.49995 48.4956L8.49981 48.4898L8.49953 48.4816L8.49906 48.471L8.49835 48.458L8.49736 48.4427L8.49605 48.425L8.49435 48.405L8.49224 48.3826L8.48965 48.3579L8.48655 48.3309L8.4829 48.3016L8.47864 48.2701L8.47373 48.2363L8.46813 48.2003L8.4618 48.1621L8.4547 48.1218L8.44678 48.0793L8.43801 48.0347L8.42835 47.988L8.41775 47.9393L8.40618 47.8886L8.39361 47.8359L8.37999 47.7813L8.3653 47.7248L8.3495 47.6664L8.33256 47.6061L8.31445 47.5441L8.29513 47.4804L8.27458 47.415L8.25278 47.3479L8.22969 47.2792L8.2053 47.2089L8.17957 47.1372L8.15249 47.0639L8.12404 46.9893L8.09419 46.9133L8.06293 46.836L8.03024 46.7574L7.99611 46.6776L7.96052 46.5967L7.92346 46.5146L7.88493 46.4315L7.84491 46.3474L7.80339 46.2624L7.76038 46.1765L7.71586 46.0898L7.66983 46.0022L7.62229 45.914L7.57325 45.8251L7.5227 45.7356L7.47064 45.6456L7.41709 45.5551L7.36206 45.4642L7.30554 45.3728L7.24754 45.2812L7.18809 45.1893L7.12719 45.0972L7.06487 45.005L7.00112 44.9126L6.93598 44.8202L6.86946 44.7279L6.80158 44.6356L6.73237 44.5435L6.66184 44.4515L6.59004 44.3598L6.51697 44.2683L6.44267 44.1772L6.36717 44.0866L6.2905 43.9963L6.2127 43.9065L6.13379 43.8173L6.05381 43.7287L5.9728 43.6407L5.8908 43.5535L5.80784 43.4669L5.72396 43.3811L5.63921 43.2962L5.55363 43.2121L5.46726 43.1289L5.38015 43.0467L5.29233 42.9654L5.20387 42.8852L5.11479 42.806L5.02517 42.728L4.93503 42.651L4.84443 42.5752L4.75343 42.5006L4.66208 42.4273L4.57042 42.3552L4.47851 42.2843L4.3864 42.2148L4.29415 42.1466L4.20181 42.0798L4.10943 42.0143L4.01708 41.9502L3.9248 41.8875L3.83266 41.8263L3.74071 41.7665L3.64901 41.7082L3.5576 41.6513L3.46656 41.5959L3.37594 41.542L3.28579 41.4896L3.19617 41.4387L3.10713 41.3893L3.01875 41.3414L2.93106 41.295L2.84413 41.2501L2.75802 41.2067L2.67278 41.1648L2.58846 41.1245L2.50512 41.0856L2.42282 41.0482L2.34161 41.0122L2.26154 40.9778L2.18267 40.9447L2.10504 40.9131L2.02872 40.8829L1.95375 40.8542L1.88018 40.8268L1.80806 40.8007L1.73745 40.776L1.66838 40.7526L1.6009 40.7305L1.53507 40.7096L1.47092 40.69L1.40849 40.6716L1.34784 40.6544L1.28901 40.6384L1.23202 40.6234L1.17693 40.6095L1.12377 40.5967L1.07257 40.5849L1.02338 40.5741L0.976222 40.5642L0.931132 40.5552L0.888143 40.5471L0.847283 40.5398L0.80858 40.5333L0.772063 40.5275L0.737755 40.5225L0.705682 40.518L0.675864 40.5142L0.648324 40.511L0.62308 40.5083L0.600149 40.5061L0.579549 40.5043L0.561292 40.5029L0.545393 40.5018L0.531862 40.5011L0.520708 40.5005L0.51194 40.5002L0.505563 40.5L0.501582 40.5L0.500818 40.5L0.504035 40.4999L0.509649 40.4998L0.517656 40.4995L0.528051 40.4991L0.540825 40.4984L0.555972 40.4974L0.573478 40.4961L0.593334 40.4945L0.615524 40.4924L0.640033 40.4898L0.666844 40.4868L0.695938 40.4832L0.727295 40.479L0.760894 40.4741L0.79671 40.4686L0.834719 40.4623L0.874895 40.4553L0.91721 40.4474L0.961633 40.4387L1.00814 40.4291L1.05668 40.4186L1.10725 40.4071L1.15979 40.3946L1.21427 40.3811L1.27065 40.3665L1.3289 40.3508L1.38898 40.3339L1.45084 40.3159L1.51445 40.2967L1.57975 40.2762L1.64671 40.2545L1.71528 40.2315L1.78541 40.2073L1.85705 40.1816L1.93016 40.1547L2.00469 40.1263L2.08059 40.0966L2.1578 40.0654L2.23628 40.0329L2.31598 39.9988L2.39683 39.9634L2.47879 39.9264L2.5618 39.888L2.64582 39.8481L2.73077 39.8067L2.81661 39.7638L2.90329 39.7194L2.99074 39.6735L3.07891 39.6261L3.16774 39.5772L3.25718 39.5267L3.34717 39.4748L3.43765 39.4214L3.52856 39.3665L3.61986 39.3101L3.71147 39.2522L3.80335 39.1928L3.89544 39.1321L3.98768 39.0698L4.08001 39.0062L4.17238 38.9412L4.26474 38.8748L4.35703 38.807L4.44918 38.7379L4.54116 38.6675L4.63291 38.5958L4.72437 38.5228L4.81549 38.4486L4.90622 38.3732L4.99651 38.2966L5.0863 38.2189L5.17556 38.1401L5.26422 38.0602L5.35225 37.9793L5.43959 37.8973L5.5262 37.8144L5.61204 37.7306L5.69706 37.646L5.78122 37.5604L5.86448 37.4741L5.94679 37.3871L6.02812 37.2993L6.10843 37.2109L6.18768 37.1219L6.26584 37.0323L6.34288 36.9422L6.41875 36.8516L6.49343 36.7607L6.5669 36.6693L6.63911 36.5777L6.71005 36.4858L6.77968 36.3937L6.84798 36.3015L6.91494 36.2091L6.98052 36.1167L7.04471 36.0244L7.1075 35.9321L7.16885 35.84L7.22876 35.748L7.28722 35.6563L7.34421 35.5648L7.39972 35.4738L7.45375 35.3831L7.50628 35.2929L7.55731 35.2032L7.60683 35.1142L7.65485 35.0257L7.70136 34.938L7.74636 34.851L7.78985 34.7648L7.83185 34.6795L7.87234 34.5951L7.91135 34.5117L7.94888 34.4293L7.98493 34.348L8.01952 34.2678L8.05267 34.1889L8.08438 34.1111L8.11468 34.0347L8.14358 33.9596L8.17109 33.8859L8.19725 33.8137L8.22207 33.743L8.24557 33.6738L8.26778 33.6062L8.28872 33.5402L8.30842 33.4759L8.32692 33.4134L8.34423 33.3526L8.36039 33.2936L8.37543 33.2365L8.38938 33.1812L8.40229 33.1279L8.41417 33.0765L8.42507 33.0272L8.43503 32.9799L8.44408 32.9346L8.45227 32.8914L8.45963 32.8504L8.4662 32.8115L8.47202 32.7749L8.47715 32.7404L8.48161 32.7081L8.48545 32.6781L8.48872 32.6504L8.49147 32.625L8.49373 32.6019L8.49555 32.5811L8.49698 32.5626L8.49807 32.5465L8.49886 32.5328L8.4994 32.5215L8.49974 32.5125L8.49992 32.5059L8.49999 32.5018L8.50001 32.5L8.50001 32.5006L8.50005 32.5037L8.50018 32.5091L8.50043 32.5169L8.50087 32.5271L8.50153 32.5397L8.50247 32.5546L8.50374 32.572L8.50537 32.5916L8.50741 32.6136L8.50992 32.638L8.51293 32.6646L8.5165 32.6935L8.52066 32.7247L8.52546 32.7581L8.53094 32.7937L8.53715 32.8316L8.54413 32.8716L8.55191 32.9137L8.56055 32.958L8.57007 33.0043L8.58051 33.0527L8.59193 33.1031L8.60434 33.1555L8.61778 33.2098L8.6323 33.2661L8.64792 33.3242L8.66468 33.3841L8.68261 33.4458L8.70173 33.5093L8.72208 33.5745L8.74368 33.6413L8.76656 33.7097L8.79074 33.7797L8.81626 33.8513L8.84312 33.9242L8.87135 33.9987L8.90098 34.0745L8.93201 34.1516L8.96447 34.2299L8.99837 34.3096L9.03373 34.3903L9.07055 34.4722L9.10885 34.5551L9.14863 34.6391L9.18991 34.7239L9.23269 34.8097L9.27697 34.8963L9.32276 34.9837L9.37005 35.0718L9.41886 35.1606L9.46917 35.25L9.52098 35.3399L9.57429 35.4304L9.62909 35.5213L9.68538 35.6125L9.74314 35.7041L9.80236 35.796L9.86302 35.8881L9.92513 35.9803L9.98865 36.0726L10.0536 36.165L10.1199 36.2573L10.1875 36.3496L10.2565 36.4418L10.3269 36.5338L10.3985 36.6256L10.4713 36.7171L10.5454 36.8082L10.6207 36.899L10.6972 36.9893L10.7748 37.0791L10.8536 37.1684L10.9334 37.2571L11.0142 37.3452L11.0961 37.4326L11.1789 37.5193L11.2626 37.6052L11.3472 37.6903L11.4327 37.7745L11.5189 37.8578L11.6059 37.9402L11.6937 38.0216L11.782 38.102L11.871 38.1814L11.9605 38.2596L12.0506 38.3367L12.1411 38.4127L12.2321 38.4875L12.3234 38.5611L12.415 38.6334L12.5069 38.7044L12.5989 38.7741L12.6912 38.8426L12.7835 38.9096L12.8759 38.9753L12.9682 39.0396L13.0605 39.1025L13.1527 39.164L13.2447 39.224L13.3364 39.2826L13.4279 39.3397L13.519 39.3953L13.6097 39.4495L13.6999 39.5021L13.7896 39.5533L13.8787 39.6029L13.9672 39.651L14.055 39.6977L14.1421 39.7428L14.2283 39.7864L14.3137 39.8285L14.3982 39.8691L14.4817 39.9083L14.5642 39.9459L14.6455 39.9821L14.7258 40.0168L14.8049 40.05L14.8827 40.0819L14.9592 40.1123L15.0344 40.1413L15.1082 40.1689L15.1806 40.1952L15.2514 40.2201L15.3207 40.2437L15.3885 40.266L15.4546 40.2871L15.519 40.3069L15.5817 40.3255L15.6426 40.3429L15.7018 40.3591L15.759 40.3742L15.8144 40.3883L15.8679 40.4013L15.9194 40.4132L15.9689 40.4242L16.0164 40.4342L16.0618 40.4434L16.1052 40.4516L16.1464 40.459L16.1854 40.4657L16.2223 40.4715L16.2569 40.4767L16.2894 40.4812L16.3196 40.4851L16.3475 40.4884L16.3731 40.4912L16.3964 40.4935L16.4173 40.4954L16.436 40.4968L16.4522 40.498L16.4662 40.4988L16.4777 40.4993L16.4868 40.4997L16.4936 40.4999L16.498 40.5L16.4999 40.5L16.4988 40.5ZM48.4952 8.50003L48.4988 8.49998L48.4999 8.49997L48.498 8.49995L48.4936 8.49987L48.4868 8.49968L48.4777 8.49933L48.4662 8.49877L48.4522 8.49796L48.436 8.49684L48.4173 8.49538L48.3964 8.49352L48.3731 8.49123L48.3475 8.48844L48.3196 8.48513L48.2894 8.48124L48.2569 8.47672L48.2223 8.47155L48.1854 8.46566L48.1464 8.45903L48.1052 8.45161L48.0618 8.44336L48.0164 8.43424L47.9689 8.4242L47.9194 8.41322L47.8679 8.40126L47.8144 8.38827L47.759 8.37423L47.7018 8.35911L47.6426 8.34285L47.5817 8.32545L47.519 8.30686L47.4546 8.28706L47.3885 8.26602L47.3207 8.24371L47.2514 8.2201L47.1806 8.19518L47.1082 8.16892L47.0344 8.14129L46.9592 8.11228L46.8827 8.08187L46.8049 8.05005L46.7258 8.01678L46.6455 7.98207L46.5642 7.9459L46.4817 7.90826L46.3982 7.86914L46.3137 7.82852L46.2283 7.78641L46.1421 7.74279L46.055 7.69767L45.9672 7.65104L45.8787 7.60291L45.7896 7.55326L45.6999 7.50211L45.6097 7.44946L45.519 7.39532L45.4279 7.33969L45.3364 7.28258L45.2447 7.22401L45.1527 7.16398L45.0605 7.10251L44.9682 7.03962L44.8759 6.97531L44.7835 6.90962L44.6912 6.84256L44.5989 6.77414L44.5069 6.70441L44.415 6.63337L44.3234 6.56105L44.2321 6.48749L44.1411 6.41271L44.0506 6.33675L43.9605 6.25962L43.871 6.18137L43.782 6.10203L43.6937 6.02164L43.6059 5.94023L43.5189 5.85784L43.4327 5.77451L43.3472 5.69028L43.2626 5.6052L43.1789 5.5193L43.0961 5.43262L43.0142 5.34523L42.9334 5.25715L42.8536 5.16843L42.7748 5.07913L42.6972 4.9893L42.6207 4.89897L42.5454 4.80821L42.4713 4.71706L42.3985 4.62558L42.3269 4.53381L42.2565 4.44181L42.1875 4.34964L42.1199 4.25735L42.0536 4.16499L41.9886 4.07262L41.9251 3.98029L41.863 3.88806L41.8024 3.79599L41.7431 3.70413L41.6854 3.61254L41.6291 3.52127L41.5743 3.43039L41.521 3.33994L41.4692 3.25L41.4189 3.1606L41.3701 3.07182L41.3228 2.98371L41.277 2.89632L41.2327 2.80971L41.1899 2.72393L41.1486 2.63905L41.1088 2.55512L41.0705 2.47219L41.0337 2.39031L40.9984 2.30955L40.9645 2.22995L40.932 2.15157L40.901 2.07446L40.8714 1.99867L40.8431 1.92425L40.8163 1.85125L40.7907 1.77973L40.7666 1.70972L40.7437 1.64128L40.7221 1.57445L40.7017 1.50928L40.6826 1.44581L40.6647 1.38409L40.6479 1.32416L40.6323 1.26606L40.6178 1.20982L40.6043 1.15549L40.5919 1.10311L40.5805 1.05271L40.5701 1.00432L40.5605 0.957981L40.5519 0.913724L40.5441 0.871579L40.5372 0.831575L40.5309 0.793739L40.5255 0.758099L40.5207 0.724678L40.5165 0.6935L40.5129 0.664587L40.5099 0.637958L40.5074 0.613633L40.5054 0.591629L40.5037 0.57196L40.5025 0.554641L40.5015 0.539683L40.5009 0.527097L40.5004 0.516893L40.5002 0.509076L40.5 0.503653L40.5 0.500627L40.5 0.501773L40.4999 0.505945L40.4997 0.512512L40.4994 0.521471L40.4989 0.532814L40.4981 0.546534L40.497 0.562622L40.4955 0.581065L40.4937 0.601852L40.4915 0.624967L40.4887 0.650395L40.4855 0.678117L40.4816 0.708115L40.4771 0.740368L40.472 0.774852L40.4662 0.811545L40.4596 0.85042L40.4523 0.89145L40.4441 0.934608L40.435 0.979863L40.4251 1.02718L40.4142 1.07654L40.4023 1.12789L40.3894 1.18121L40.3754 1.23645L40.3604 1.29359L40.3442 1.35257L40.3269 1.41336L40.3084 1.47592L40.2887 1.54021L40.2678 1.60618L40.2456 1.67378L40.2221 1.74298L40.1973 1.81371L40.1711 1.88595L40.1436 1.95963L40.1147 2.03471L40.0844 2.11114L40.0527 2.18887L40.0195 2.26783L39.9849 2.348L39.9489 2.4293L39.9114 2.51168L39.8723 2.5951L39.8318 2.67949L39.7899 2.76481L39.7464 2.85099L39.7014 2.93798L39.6549 3.02572L39.6068 3.11416L39.5573 3.20324L39.5063 3.29291L39.4537 3.3831L39.3997 3.47376L39.3442 3.56483L39.2872 3.65626L39.2288 3.74799L39.1688 3.83996L39.1075 3.93211L39.0447 4.02439L38.9805 4.11675L38.9149 4.20912L38.848 4.30146L38.7797 4.3937L38.71 4.48579L38.6391 4.57769L38.5669 4.66933L38.4934 4.76066L38.4188 4.85163L38.3429 4.94219L38.2658 5.03228L38.1877 5.12187L38.1084 5.2109L38.0281 5.29931L37.9468 5.38707L37.8645 5.47413L37.7812 5.56044L37.6971 5.64596L37.612 5.73064L37.5262 5.81444L37.4396 5.89733L37.3522 5.97925L37.2642 6.06018L37.1756 6.14008L37.0863 6.2189L36.9965 6.29661L36.9062 6.37319L36.8155 6.44859L36.7244 6.5228L36.6329 6.59576L36.5412 6.66747L36.4492 6.73789L36.357 6.807L36.2647 6.87477L36.1724 6.94118L36.08 7.00621L35.9877 7.06984L35.8954 7.13206L35.8033 7.19284L35.7115 7.25218L35.6199 7.31005L35.5286 7.36645L35.4376 7.42137L35.3472 7.47481L35.2572 7.52674L35.1677 7.57717L35.0789 7.62609L34.9907 7.67351L34.9033 7.71942L34.8166 7.76382L34.7308 7.80672L34.6458 7.84811L34.5618 7.88802L34.4788 7.92643L34.3968 7.96337L34.316 7.99884L34.2363 8.03286L34.1578 8.06543L34.0806 8.09658L34.0047 8.12631L33.9302 8.15466L33.8571 8.18163L33.7854 8.20725L33.7153 8.23154L33.6467 8.25453L33.5798 8.27623L33.5144 8.29667L33.4508 8.31589L33.389 8.33391L33.3289 8.35076L33.2707 8.36647L33.2143 8.38108L33.1598 8.39461L33.1072 8.4071L33.0567 8.41859L33.0081 8.42911L32.9616 8.4387L32.9172 8.44741L32.8749 8.45526L32.8347 8.4623L32.7967 8.46857L32.7609 8.47411L32.7273 8.47896L32.6959 8.48317L32.6668 8.48678L32.64 8.48984L32.6155 8.49238L32.5933 8.49446L32.5735 8.49612L32.556 8.49741L32.5408 8.49838L32.528 8.49906L32.5177 8.49952L32.5096 8.49979L32.504 8.49992L32.5008 8.49996L32.5 8.49997L32.5016 8.49998L32.5056 8.50005L32.5119 8.50022L32.5207 8.50054L32.5319 8.50107L32.5454 8.50183L32.5613 8.5029L32.5795 8.5043L32.6001 8.50609L32.6231 8.50832L32.6483 8.51102L32.6759 8.51425L32.7057 8.51804L32.7378 8.52245L32.7721 8.52752L32.8086 8.53329L32.8473 8.5398L32.8881 8.54709L32.9311 8.55521L32.9762 8.56419L33.0234 8.57408L33.0726 8.5849L33.1238 8.59671L33.1769 8.60953L33.232 8.6234L33.289 8.63835L33.3478 8.65442L33.4085 8.67164L33.4709 8.69004L33.5351 8.70964L33.6009 8.73049L33.6684 8.75259L33.7374 8.77599L33.8081 8.8007L33.8802 8.82675L33.9538 8.85416L34.0287 8.88294L34.105 8.91313L34.1827 8.94473L34.2615 8.97776L34.3416 9.01224L34.4228 9.04818L34.5051 9.08558L34.5885 9.12447L34.6728 9.16485L34.758 9.20672L34.8441 9.2501L34.9311 9.29498L35.0187 9.34137L35.1071 9.38927L35.1962 9.43867L35.2858 9.48958L35.3759 9.54199L35.4666 9.5959L35.5576 9.65129L35.649 9.70816L35.7407 9.7665L35.8327 9.8263L35.9248 9.88754L36.0171 9.95021L36.1094 10.0143L36.2018 10.0798L36.2941 10.1466L36.3864 10.2148L36.4785 10.2843L36.5704 10.3552L36.6621 10.4273L36.7534 10.5006L36.8444 10.5752L36.935 10.651L37.0252 10.728L37.1148 10.806L37.2039 10.8852L37.2923 10.9654L37.3801 11.0467L37.4673 11.1289L37.5536 11.2121L37.6392 11.2962L37.724 11.3811L37.8078 11.4669L37.8908 11.5535L37.9728 11.6407L38.0538 11.7287L38.1338 11.8173L38.2127 11.9065L38.2905 11.9963L38.3672 12.0866L38.4427 12.1772L38.517 12.2683L38.59 12.3598L38.6618 12.4515L38.7324 12.5435L38.8016 12.6356L38.8695 12.7279L38.936 12.8202L39.0011 12.9126L39.0649 13.005L39.1272 13.0972L39.1881 13.1893L39.2475 13.2812L39.3055 13.3728L39.3621 13.4642L39.4171 13.5551L39.4706 13.6456L39.5227 13.7357L39.5732 13.8251L39.6223 13.914L39.6698 14.0022L39.7159 14.0898L39.7604 14.1765L39.8034 14.2624L39.8449 14.3474L39.8849 14.4315L39.9235 14.5146L39.9605 14.5967L39.9961 14.6776L40.0302 14.7574L40.0629 14.836L40.0942 14.9133L40.124 14.9893L40.1525 15.0639L40.1796 15.1372L40.2053 15.2089L40.2297 15.2792L40.2528 15.3479L40.2746 15.415L40.2951 15.4804L40.3144 15.5441L40.3326 15.6061L40.3495 15.6664L40.3653 15.7248L40.38 15.7813L40.3936 15.8359L40.4062 15.8886L40.4177 15.9393L40.4283 15.988L40.438 16.0347L40.4468 16.0793L40.4547 16.1218L40.4618 16.1621L40.4681 16.2003L40.4737 16.2363L40.4786 16.2701L40.4829 16.3016L40.4866 16.3309L40.4897 16.3579L40.4922 16.3826L40.4944 16.405L40.496 16.425L40.4974 16.4427L40.4984 16.458L40.4991 16.471L40.4995 16.4816L40.4998 16.4898L40.5 16.4956L40.5 16.499L40.5 16.5L40.5 16.4986L40.5001 16.4948L40.5002 16.4886L40.5005 16.4801L40.5011 16.4691L40.5018 16.4557L40.5028 16.44L40.5042 16.422L40.506 16.4016L40.5082 16.3788L40.5108 16.3537L40.514 16.3264L40.5178 16.2968L40.5221 16.2649L40.5271 16.2307L40.5328 16.1944L40.5393 16.1559L40.5465 16.1152L40.5546 16.0723L40.5635 16.0274L40.5733 15.9804L40.584 15.9314L40.5958 15.8804L40.6085 15.8274L40.6223 15.7724L40.6372 15.7156L40.6531 15.6569L40.6703 15.5964L40.6886 15.5341L40.7081 15.4701L40.7288 15.4044L40.7508 15.337L40.7741 15.2681L40.7987 15.1976L40.8247 15.1256L40.852 15.0521L40.8806 14.9773L40.9107 14.9011L40.9422 14.8235L40.9751 14.7448L41.0095 14.6648L41.0453 14.5837L41.0826 14.5014L41.1214 14.4182L41.1616 14.334L41.2034 14.2488L41.2466 14.1627L41.2914 14.0759L41.3377 13.9882L41.3854 13.8999L41.4347 13.8109L41.4855 13.7213L41.5378 13.6312L41.5916 13.5406L41.6469 13.4496L41.7036 13.3583L41.7618 13.2666L41.8215 13.1746L41.8827 13.0825L41.9452 12.9902L42.0092 12.8979L42.0745 12.8055L42.1413 12.7132L42.2094 12.6209L42.2788 12.5288L42.3495 12.4369L42.4215 12.3452L42.4948 12.2538L42.5693 12.1628L42.645 12.0721L42.7218 11.982L42.7998 11.8923L42.8789 11.8032L42.959 11.7147L43.0402 11.6268L43.1224 11.5396L43.2055 11.4532L43.2895 11.3675L43.3744 11.2827L43.4601 11.1988L43.5466 11.1157L43.6338 11.0337L43.7217 10.9526L43.8103 10.8725L43.8995 10.7935L43.9892 10.7156L44.0794 10.6389L44.17 10.5633L44.2611 10.4889L44.3525 10.4157L44.4442 10.3438L44.5362 10.2732L44.6283 10.2039L44.7206 10.1359L44.8129 10.0692L44.9053 10.004L44.9976 9.94014L45.0899 9.87769L45.182 9.81668L45.2739 9.75711L45.3656 9.69901L45.4569 9.64237L45.5479 9.58721L45.6385 9.53354L45.7285 9.48137L45.8181 9.4307L45.907 9.38154L45.9953 9.33388L46.0829 9.28773L46.1697 9.24309L46.2556 9.19995L46.3407 9.15832L46.4249 9.11818L46.5081 9.07953L46.5902 9.04235L46.6712 9.00665L46.7511 8.9724L46.8298 8.9396L46.9072 8.90823L46.9833 8.87827L47.0581 8.8497L47.1314 8.82251L47.2033 8.79668L47.2737 8.77218L47.3425 8.74899L47.4097 8.72708L47.4753 8.70644L47.5392 8.68703L47.6013 8.66882L47.6617 8.65178L47.7202 8.63589L47.7769 8.62112L47.8317 8.60742L47.8845 8.59476L47.9354 8.58311L47.9843 8.57244L48.0311 8.5627L48.0759 8.55386L48.1185 8.54587L48.159 8.53871L48.1974 8.53232L48.2336 8.52667L48.2675 8.52171L48.2992 8.5174L48.3287 8.51369L48.3559 8.51055L48.3807 8.50793L48.4033 8.50578L48.4235 8.50405L48.4414 8.50271L48.4569 8.50169L48.4701 8.50097L48.4809 8.50048L48.4893 8.50019L48.4952 8.50003Z" fill="#F7F7F7" fill-opacity="0.15"/>
</svg>
