<svg width="161" height="142" viewBox="0 0 161 142" fill="none" xmlns="http://www.w3.org/2000/svg">
<g clip-path="url(#clip0)">
<path d="M63.5 42.7319C63.5 43.5604 62.8284 44.2319 62 44.2319C61.1716 44.2319 60.5 43.5604 60.5 42.7319C60.5 41.9035 61.1716 41.2319 62 41.2319C62.8284 41.2319 63.5 41.9035 63.5 42.7319Z" fill="#F7F7F7" fill-opacity="0.15"/>
<path d="M72.5 42.7319C72.5 43.5604 71.8284 44.2319 71 44.2319C70.1716 44.2319 69.5 43.5604 69.5 42.7319C69.5 41.9035 70.1716 41.2319 71 41.2319C71.8284 41.2319 72.5 41.9035 72.5 42.7319Z" fill="#F7F7F7" fill-opacity="0.15"/>
<path d="M81.5 42.7319C81.5 43.5604 80.8284 44.2319 80 44.2319C79.1716 44.2319 78.5 43.5604 78.5 42.7319C78.5 41.9035 79.1716 41.2319 80 41.2319C80.8284 41.2319 81.5 41.9035 81.5 42.7319Z" fill="#F7F7F7" fill-opacity="0.15"/>
<path d="M90.5 42.7319C90.5 43.5604 89.8284 44.2319 89 44.2319C88.1716 44.2319 87.5 43.5604 87.5 42.7319C87.5 41.9035 88.1716 41.2319 89 41.2319C89.8284 41.2319 90.5 41.9035 90.5 42.7319Z" fill="#F7F7F7" fill-opacity="0.15"/>
<path d="M99.5 42.7319C99.5 43.5604 98.8284 44.2319 98 44.2319C97.1716 44.2319 96.5 43.5604 96.5 42.7319C96.5 41.9035 97.1716 41.2319 98 41.2319C98.8284 41.2319 99.5 41.9035 99.5 42.7319Z" fill="#F7F7F7" fill-opacity="0.15"/>
<path d="M108.5 42.7319C108.5 43.5604 107.828 44.2319 107 44.2319C106.172 44.2319 105.5 43.5604 105.5 42.7319C105.5 41.9035 106.172 41.2319 107 41.2319C107.828 41.2319 108.5 41.9035 108.5 42.7319Z" fill="#F7F7F7" fill-opacity="0.15"/>
<path d="M117.5 42.7319C117.5 43.5604 116.828 44.2319 116 44.2319C115.172 44.2319 114.5 43.5604 114.5 42.7319C114.5 41.9035 115.172 41.2319 116 41.2319C116.828 41.2319 117.5 41.9035 117.5 42.7319Z" fill="#F7F7F7" fill-opacity="0.15"/>
<path d="M126.5 42.7319C126.5 43.5604 125.828 44.2319 125 44.2319C124.172 44.2319 123.5 43.5604 123.5 42.7319C123.5 41.9035 124.172 41.2319 125 41.2319C125.828 41.2319 126.5 41.9035 126.5 42.7319Z" fill="#F7F7F7" fill-opacity="0.15"/>
<path d="M135.5 42.7319C135.5 43.5604 134.828 44.2319 134 44.2319C133.172 44.2319 132.5 43.5604 132.5 42.7319C132.5 41.9035 133.172 41.2319 134 41.2319C134.828 41.2319 135.5 41.9035 135.5 42.7319Z" fill="#F7F7F7" fill-opacity="0.15"/>
<path d="M144.5 42.7319C144.5 43.5604 143.828 44.2319 143 44.2319C142.172 44.2319 141.5 43.5604 141.5 42.7319C141.5 41.9035 142.172 41.2319 143 41.2319C143.828 41.2319 144.5 41.9035 144.5 42.7319Z" fill="#F7F7F7" fill-opacity="0.15"/>
<path d="M153.5 42.7319C153.5 43.5604 152.828 44.2319 152 44.2319C151.172 44.2319 150.5 43.5604 150.5 42.7319C150.5 41.9035 151.172 41.2319 152 41.2319C152.828 41.2319 153.5 41.9035 153.5 42.7319Z" fill="#F7F7F7" fill-opacity="0.15"/>
<path d="M63.5 51.7319C63.5 52.5604 62.8284 53.2319 62 53.2319C61.1716 53.2319 60.5 52.5604 60.5 51.7319C60.5 50.9035 61.1716 50.2319 62 50.2319C62.8284 50.2319 63.5 50.9035 63.5 51.7319Z" fill="#F7F7F7" fill-opacity="0.15"/>
<path d="M72.5 51.7319C72.5 52.5604 71.8284 53.2319 71 53.2319C70.1716 53.2319 69.5 52.5604 69.5 51.7319C69.5 50.9035 70.1716 50.2319 71 50.2319C71.8284 50.2319 72.5 50.9035 72.5 51.7319Z" fill="#F7F7F7" fill-opacity="0.15"/>
<path d="M81.5 51.7319C81.5 52.5604 80.8284 53.2319 80 53.2319C79.1716 53.2319 78.5 52.5604 78.5 51.7319C78.5 50.9035 79.1716 50.2319 80 50.2319C80.8284 50.2319 81.5 50.9035 81.5 51.7319Z" fill="#F7F7F7" fill-opacity="0.15"/>
<path d="M90.5 51.7319C90.5 52.5604 89.8284 53.2319 89 53.2319C88.1716 53.2319 87.5 52.5604 87.5 51.7319C87.5 50.9035 88.1716 50.2319 89 50.2319C89.8284 50.2319 90.5 50.9035 90.5 51.7319Z" fill="#F7F7F7" fill-opacity="0.15"/>
<path d="M99.5 51.7319C99.5 52.5604 98.8284 53.2319 98 53.2319C97.1716 53.2319 96.5 52.5604 96.5 51.7319C96.5 50.9035 97.1716 50.2319 98 50.2319C98.8284 50.2319 99.5 50.9035 99.5 51.7319Z" fill="#F7F7F7" fill-opacity="0.15"/>
<path d="M108.5 51.7319C108.5 52.5604 107.828 53.2319 107 53.2319C106.172 53.2319 105.5 52.5604 105.5 51.7319C105.5 50.9035 106.172 50.2319 107 50.2319C107.828 50.2319 108.5 50.9035 108.5 51.7319Z" fill="#F7F7F7" fill-opacity="0.15"/>
<path d="M117.5 51.7319C117.5 52.5604 116.828 53.2319 116 53.2319C115.172 53.2319 114.5 52.5604 114.5 51.7319C114.5 50.9035 115.172 50.2319 116 50.2319C116.828 50.2319 117.5 50.9035 117.5 51.7319Z" fill="#F7F7F7" fill-opacity="0.15"/>
<path d="M126.5 51.7319C126.5 52.5604 125.828 53.2319 125 53.2319C124.172 53.2319 123.5 52.5604 123.5 51.7319C123.5 50.9035 124.172 50.2319 125 50.2319C125.828 50.2319 126.5 50.9035 126.5 51.7319Z" fill="#F7F7F7" fill-opacity="0.15"/>
<path d="M135.5 51.7319C135.5 52.5604 134.828 53.2319 134 53.2319C133.172 53.2319 132.5 52.5604 132.5 51.7319C132.5 50.9035 133.172 50.2319 134 50.2319C134.828 50.2319 135.5 50.9035 135.5 51.7319Z" fill="#F7F7F7" fill-opacity="0.15"/>
<path d="M144.5 51.7319C144.5 52.5604 143.828 53.2319 143 53.2319C142.172 53.2319 141.5 52.5604 141.5 51.7319C141.5 50.9035 142.172 50.2319 143 50.2319C143.828 50.2319 144.5 50.9035 144.5 51.7319Z" fill="#F7F7F7" fill-opacity="0.15"/>
<path d="M153.5 51.7319C153.5 52.5604 152.828 53.2319 152 53.2319C151.172 53.2319 150.5 52.5604 150.5 51.7319C150.5 50.9035 151.172 50.2319 152 50.2319C152.828 50.2319 153.5 50.9035 153.5 51.7319Z" fill="#F7F7F7" fill-opacity="0.15"/>
<path d="M63.5 60.7319C63.5 61.5604 62.8284 62.2319 62 62.2319C61.1716 62.2319 60.5 61.5604 60.5 60.7319C60.5 59.9035 61.1716 59.2319 62 59.2319C62.8284 59.2319 63.5 59.9035 63.5 60.7319Z" fill="#F7F7F7" fill-opacity="0.15"/>
<path d="M72.5 60.7319C72.5 61.5604 71.8284 62.2319 71 62.2319C70.1716 62.2319 69.5 61.5604 69.5 60.7319C69.5 59.9035 70.1716 59.2319 71 59.2319C71.8284 59.2319 72.5 59.9035 72.5 60.7319Z" fill="#F7F7F7" fill-opacity="0.15"/>
<path d="M81.5 60.7319C81.5 61.5604 80.8284 62.2319 80 62.2319C79.1716 62.2319 78.5 61.5604 78.5 60.7319C78.5 59.9035 79.1716 59.2319 80 59.2319C80.8284 59.2319 81.5 59.9035 81.5 60.7319Z" fill="#F7F7F7" fill-opacity="0.15"/>
<path d="M90.5 60.7319C90.5 61.5604 89.8284 62.2319 89 62.2319C88.1716 62.2319 87.5 61.5604 87.5 60.7319C87.5 59.9035 88.1716 59.2319 89 59.2319C89.8284 59.2319 90.5 59.9035 90.5 60.7319Z" fill="#F7F7F7" fill-opacity="0.15"/>
<path d="M99.5 60.7319C99.5 61.5604 98.8284 62.2319 98 62.2319C97.1716 62.2319 96.5 61.5604 96.5 60.7319C96.5 59.9035 97.1716 59.2319 98 59.2319C98.8284 59.2319 99.5 59.9035 99.5 60.7319Z" fill="#F7F7F7" fill-opacity="0.15"/>
<path d="M108.5 60.7319C108.5 61.5604 107.828 62.2319 107 62.2319C106.172 62.2319 105.5 61.5604 105.5 60.7319C105.5 59.9035 106.172 59.2319 107 59.2319C107.828 59.2319 108.5 59.9035 108.5 60.7319Z" fill="#F7F7F7" fill-opacity="0.15"/>
<path d="M117.5 60.7319C117.5 61.5604 116.828 62.2319 116 62.2319C115.172 62.2319 114.5 61.5604 114.5 60.7319C114.5 59.9035 115.172 59.2319 116 59.2319C116.828 59.2319 117.5 59.9035 117.5 60.7319Z" fill="#F7F7F7" fill-opacity="0.15"/>
<path d="M126.5 60.7319C126.5 61.5604 125.828 62.2319 125 62.2319C124.172 62.2319 123.5 61.5604 123.5 60.7319C123.5 59.9035 124.172 59.2319 125 59.2319C125.828 59.2319 126.5 59.9035 126.5 60.7319Z" fill="#F7F7F7" fill-opacity="0.15"/>
<path d="M135.5 60.7319C135.5 61.5604 134.828 62.2319 134 62.2319C133.172 62.2319 132.5 61.5604 132.5 60.7319C132.5 59.9035 133.172 59.2319 134 59.2319C134.828 59.2319 135.5 59.9035 135.5 60.7319Z" fill="#F7F7F7" fill-opacity="0.15"/>
<path d="M144.5 60.7319C144.5 61.5604 143.828 62.2319 143 62.2319C142.172 62.2319 141.5 61.5604 141.5 60.7319C141.5 59.9035 142.172 59.2319 143 59.2319C143.828 59.2319 144.5 59.9035 144.5 60.7319Z" fill="#F7F7F7" fill-opacity="0.15"/>
<path d="M153.5 60.7319C153.5 61.5604 152.828 62.2319 152 62.2319C151.172 62.2319 150.5 61.5604 150.5 60.7319C150.5 59.9035 151.172 59.2319 152 59.2319C152.828 59.2319 153.5 59.9035 153.5 60.7319Z" fill="#F7F7F7" fill-opacity="0.15"/>
<path d="M63.5 69.7319C63.5 70.5604 62.8284 71.2319 62 71.2319C61.1716 71.2319 60.5 70.5604 60.5 69.7319C60.5 68.9035 61.1716 68.2319 62 68.2319C62.8284 68.2319 63.5 68.9035 63.5 69.7319Z" fill="#F7F7F7" fill-opacity="0.15"/>
<path d="M72.5 69.7319C72.5 70.5604 71.8284 71.2319 71 71.2319C70.1716 71.2319 69.5 70.5604 69.5 69.7319C69.5 68.9035 70.1716 68.2319 71 68.2319C71.8284 68.2319 72.5 68.9035 72.5 69.7319Z" fill="#F7F7F7" fill-opacity="0.15"/>
<path d="M81.5 69.7319C81.5 70.5604 80.8284 71.2319 80 71.2319C79.1716 71.2319 78.5 70.5604 78.5 69.7319C78.5 68.9035 79.1716 68.2319 80 68.2319C80.8284 68.2319 81.5 68.9035 81.5 69.7319Z" fill="#F7F7F7" fill-opacity="0.15"/>
<path d="M90.5 69.7319C90.5 70.5604 89.8284 71.2319 89 71.2319C88.1716 71.2319 87.5 70.5604 87.5 69.7319C87.5 68.9035 88.1716 68.2319 89 68.2319C89.8284 68.2319 90.5 68.9035 90.5 69.7319Z" fill="#F7F7F7" fill-opacity="0.15"/>
<path d="M99.5 69.7319C99.5 70.5604 98.8284 71.2319 98 71.2319C97.1716 71.2319 96.5 70.5604 96.5 69.7319C96.5 68.9035 97.1716 68.2319 98 68.2319C98.8284 68.2319 99.5 68.9035 99.5 69.7319Z" fill="#F7F7F7" fill-opacity="0.15"/>
<path d="M108.5 69.7319C108.5 70.5604 107.828 71.2319 107 71.2319C106.172 71.2319 105.5 70.5604 105.5 69.7319C105.5 68.9035 106.172 68.2319 107 68.2319C107.828 68.2319 108.5 68.9035 108.5 69.7319Z" fill="#F7F7F7" fill-opacity="0.15"/>
<path d="M117.5 69.7319C117.5 70.5604 116.828 71.2319 116 71.2319C115.172 71.2319 114.5 70.5604 114.5 69.7319C114.5 68.9035 115.172 68.2319 116 68.2319C116.828 68.2319 117.5 68.9035 117.5 69.7319Z" fill="#F7F7F7" fill-opacity="0.15"/>
<path d="M126.5 69.7319C126.5 70.5604 125.828 71.2319 125 71.2319C124.172 71.2319 123.5 70.5604 123.5 69.7319C123.5 68.9035 124.172 68.2319 125 68.2319C125.828 68.2319 126.5 68.9035 126.5 69.7319Z" fill="#F7F7F7" fill-opacity="0.15"/>
<path d="M135.5 69.7319C135.5 70.5604 134.828 71.2319 134 71.2319C133.172 71.2319 132.5 70.5604 132.5 69.7319C132.5 68.9035 133.172 68.2319 134 68.2319C134.828 68.2319 135.5 68.9035 135.5 69.7319Z" fill="#F7F7F7" fill-opacity="0.15"/>
<path d="M144.5 69.7319C144.5 70.5604 143.828 71.2319 143 71.2319C142.172 71.2319 141.5 70.5604 141.5 69.7319C141.5 68.9035 142.172 68.2319 143 68.2319C143.828 68.2319 144.5 68.9035 144.5 69.7319Z" fill="#F7F7F7" fill-opacity="0.15"/>
<path d="M153.5 69.7319C153.5 70.5604 152.828 71.2319 152 71.2319C151.172 71.2319 150.5 70.5604 150.5 69.7319C150.5 68.9035 151.172 68.2319 152 68.2319C152.828 68.2319 153.5 68.9035 153.5 69.7319Z" fill="#F7F7F7" fill-opacity="0.15"/>
<path d="M63.5 78.7319C63.5 79.5604 62.8284 80.2319 62 80.2319C61.1716 80.2319 60.5 79.5604 60.5 78.7319C60.5 77.9035 61.1716 77.2319 62 77.2319C62.8284 77.2319 63.5 77.9035 63.5 78.7319Z" fill="#F7F7F7" fill-opacity="0.15"/>
<path d="M72.5 78.7319C72.5 79.5604 71.8284 80.2319 71 80.2319C70.1716 80.2319 69.5 79.5604 69.5 78.7319C69.5 77.9035 70.1716 77.2319 71 77.2319C71.8284 77.2319 72.5 77.9035 72.5 78.7319Z" fill="#F7F7F7" fill-opacity="0.15"/>
<path d="M81.5 78.7319C81.5 79.5604 80.8284 80.2319 80 80.2319C79.1716 80.2319 78.5 79.5604 78.5 78.7319C78.5 77.9035 79.1716 77.2319 80 77.2319C80.8284 77.2319 81.5 77.9035 81.5 78.7319Z" fill="#F7F7F7" fill-opacity="0.15"/>
<path d="M90.5 78.7319C90.5 79.5604 89.8284 80.2319 89 80.2319C88.1716 80.2319 87.5 79.5604 87.5 78.7319C87.5 77.9035 88.1716 77.2319 89 77.2319C89.8284 77.2319 90.5 77.9035 90.5 78.7319Z" fill="#F7F7F7" fill-opacity="0.15"/>
<path d="M99.5 78.7319C99.5 79.5604 98.8284 80.2319 98 80.2319C97.1716 80.2319 96.5 79.5604 96.5 78.7319C96.5 77.9035 97.1716 77.2319 98 77.2319C98.8284 77.2319 99.5 77.9035 99.5 78.7319Z" fill="#F7F7F7" fill-opacity="0.15"/>
<path d="M108.5 78.7319C108.5 79.5604 107.828 80.2319 107 80.2319C106.172 80.2319 105.5 79.5604 105.5 78.7319C105.5 77.9035 106.172 77.2319 107 77.2319C107.828 77.2319 108.5 77.9035 108.5 78.7319Z" fill="#F7F7F7" fill-opacity="0.15"/>
<path d="M117.5 78.7319C117.5 79.5604 116.828 80.2319 116 80.2319C115.172 80.2319 114.5 79.5604 114.5 78.7319C114.5 77.9035 115.172 77.2319 116 77.2319C116.828 77.2319 117.5 77.9035 117.5 78.7319Z" fill="#F7F7F7" fill-opacity="0.15"/>
<path d="M126.5 78.7319C126.5 79.5604 125.828 80.2319 125 80.2319C124.172 80.2319 123.5 79.5604 123.5 78.7319C123.5 77.9035 124.172 77.2319 125 77.2319C125.828 77.2319 126.5 77.9035 126.5 78.7319Z" fill="#F7F7F7" fill-opacity="0.15"/>
<path d="M135.5 78.7319C135.5 79.5604 134.828 80.2319 134 80.2319C133.172 80.2319 132.5 79.5604 132.5 78.7319C132.5 77.9035 133.172 77.2319 134 77.2319C134.828 77.2319 135.5 77.9035 135.5 78.7319Z" fill="#F7F7F7" fill-opacity="0.15"/>
<path d="M144.5 78.7319C144.5 79.5604 143.828 80.2319 143 80.2319C142.172 80.2319 141.5 79.5604 141.5 78.7319C141.5 77.9035 142.172 77.2319 143 77.2319C143.828 77.2319 144.5 77.9035 144.5 78.7319Z" fill="#F7F7F7" fill-opacity="0.15"/>
<path d="M153.5 78.7319C153.5 79.5604 152.828 80.2319 152 80.2319C151.172 80.2319 150.5 79.5604 150.5 78.7319C150.5 77.9035 151.172 77.2319 152 77.2319C152.828 77.2319 153.5 77.9035 153.5 78.7319Z" fill="#F7F7F7" fill-opacity="0.15"/>
<path d="M63.5 87.7319C63.5 88.5604 62.8284 89.2319 62 89.2319C61.1716 89.2319 60.5 88.5604 60.5 87.7319C60.5 86.9035 61.1716 86.2319 62 86.2319C62.8284 86.2319 63.5 86.9035 63.5 87.7319Z" fill="#F7F7F7" fill-opacity="0.15"/>
<path d="M72.5 87.7319C72.5 88.5604 71.8284 89.2319 71 89.2319C70.1716 89.2319 69.5 88.5604 69.5 87.7319C69.5 86.9035 70.1716 86.2319 71 86.2319C71.8284 86.2319 72.5 86.9035 72.5 87.7319Z" fill="#F7F7F7" fill-opacity="0.15"/>
<path d="M81.5 87.7319C81.5 88.5604 80.8284 89.2319 80 89.2319C79.1716 89.2319 78.5 88.5604 78.5 87.7319C78.5 86.9035 79.1716 86.2319 80 86.2319C80.8284 86.2319 81.5 86.9035 81.5 87.7319Z" fill="#F7F7F7" fill-opacity="0.15"/>
<path d="M90.5 87.7319C90.5 88.5604 89.8284 89.2319 89 89.2319C88.1716 89.2319 87.5 88.5604 87.5 87.7319C87.5 86.9035 88.1716 86.2319 89 86.2319C89.8284 86.2319 90.5 86.9035 90.5 87.7319Z" fill="#F7F7F7" fill-opacity="0.15"/>
<path d="M99.5 87.7319C99.5 88.5604 98.8284 89.2319 98 89.2319C97.1716 89.2319 96.5 88.5604 96.5 87.7319C96.5 86.9035 97.1716 86.2319 98 86.2319C98.8284 86.2319 99.5 86.9035 99.5 87.7319Z" fill="#F7F7F7" fill-opacity="0.15"/>
<path d="M108.5 87.7319C108.5 88.5604 107.828 89.2319 107 89.2319C106.172 89.2319 105.5 88.5604 105.5 87.7319C105.5 86.9035 106.172 86.2319 107 86.2319C107.828 86.2319 108.5 86.9035 108.5 87.7319Z" fill="#F7F7F7" fill-opacity="0.15"/>
<path d="M117.5 87.7319C117.5 88.5604 116.828 89.2319 116 89.2319C115.172 89.2319 114.5 88.5604 114.5 87.7319C114.5 86.9035 115.172 86.2319 116 86.2319C116.828 86.2319 117.5 86.9035 117.5 87.7319Z" fill="#F7F7F7" fill-opacity="0.15"/>
<path d="M126.5 87.7319C126.5 88.5604 125.828 89.2319 125 89.2319C124.172 89.2319 123.5 88.5604 123.5 87.7319C123.5 86.9035 124.172 86.2319 125 86.2319C125.828 86.2319 126.5 86.9035 126.5 87.7319Z" fill="#F7F7F7" fill-opacity="0.15"/>
<path d="M135.5 87.7319C135.5 88.5604 134.828 89.2319 134 89.2319C133.172 89.2319 132.5 88.5604 132.5 87.7319C132.5 86.9035 133.172 86.2319 134 86.2319C134.828 86.2319 135.5 86.9035 135.5 87.7319Z" fill="#F7F7F7" fill-opacity="0.15"/>
<path d="M144.5 87.7319C144.5 88.5604 143.828 89.2319 143 89.2319C142.172 89.2319 141.5 88.5604 141.5 87.7319C141.5 86.9035 142.172 86.2319 143 86.2319C143.828 86.2319 144.5 86.9035 144.5 87.7319Z" fill="#F7F7F7" fill-opacity="0.15"/>
<path d="M153.5 87.7319C153.5 88.5604 152.828 89.2319 152 89.2319C151.172 89.2319 150.5 88.5604 150.5 87.7319C150.5 86.9035 151.172 86.2319 152 86.2319C152.828 86.2319 153.5 86.9035 153.5 87.7319Z" fill="#F7F7F7" fill-opacity="0.15"/>
<path d="M63.5 96.7319C63.5 97.5604 62.8284 98.2319 62 98.2319C61.1716 98.2319 60.5 97.5604 60.5 96.7319C60.5 95.9035 61.1716 95.2319 62 95.2319C62.8284 95.2319 63.5 95.9035 63.5 96.7319Z" fill="#F7F7F7" fill-opacity="0.15"/>
<path d="M72.5 96.7319C72.5 97.5604 71.8284 98.2319 71 98.2319C70.1716 98.2319 69.5 97.5604 69.5 96.7319C69.5 95.9035 70.1716 95.2319 71 95.2319C71.8284 95.2319 72.5 95.9035 72.5 96.7319Z" fill="#F7F7F7" fill-opacity="0.15"/>
<path d="M81.5 96.7319C81.5 97.5604 80.8284 98.2319 80 98.2319C79.1716 98.2319 78.5 97.5604 78.5 96.7319C78.5 95.9035 79.1716 95.2319 80 95.2319C80.8284 95.2319 81.5 95.9035 81.5 96.7319Z" fill="#F7F7F7" fill-opacity="0.15"/>
<path d="M90.5 96.7319C90.5 97.5604 89.8284 98.2319 89 98.2319C88.1716 98.2319 87.5 97.5604 87.5 96.7319C87.5 95.9035 88.1716 95.2319 89 95.2319C89.8284 95.2319 90.5 95.9035 90.5 96.7319Z" fill="#F7F7F7" fill-opacity="0.15"/>
<path d="M99.5 96.7319C99.5 97.5604 98.8284 98.2319 98 98.2319C97.1716 98.2319 96.5 97.5604 96.5 96.7319C96.5 95.9035 97.1716 95.2319 98 95.2319C98.8284 95.2319 99.5 95.9035 99.5 96.7319Z" fill="#F7F7F7" fill-opacity="0.15"/>
<path d="M108.5 96.7319C108.5 97.5604 107.828 98.2319 107 98.2319C106.172 98.2319 105.5 97.5604 105.5 96.7319C105.5 95.9035 106.172 95.2319 107 95.2319C107.828 95.2319 108.5 95.9035 108.5 96.7319Z" fill="#F7F7F7" fill-opacity="0.15"/>
<path d="M117.5 96.7319C117.5 97.5604 116.828 98.2319 116 98.2319C115.172 98.2319 114.5 97.5604 114.5 96.7319C114.5 95.9035 115.172 95.2319 116 95.2319C116.828 95.2319 117.5 95.9035 117.5 96.7319Z" fill="#F7F7F7" fill-opacity="0.15"/>
<path d="M126.5 96.7319C126.5 97.5604 125.828 98.2319 125 98.2319C124.172 98.2319 123.5 97.5604 123.5 96.7319C123.5 95.9035 124.172 95.2319 125 95.2319C125.828 95.2319 126.5 95.9035 126.5 96.7319Z" fill="#F7F7F7" fill-opacity="0.15"/>
<path d="M135.5 96.7319C135.5 97.5604 134.828 98.2319 134 98.2319C133.172 98.2319 132.5 97.5604 132.5 96.7319C132.5 95.9035 133.172 95.2319 134 95.2319C134.828 95.2319 135.5 95.9035 135.5 96.7319Z" fill="#F7F7F7" fill-opacity="0.15"/>
<path d="M144.5 96.7319C144.5 97.5604 143.828 98.2319 143 98.2319C142.172 98.2319 141.5 97.5604 141.5 96.7319C141.5 95.9035 142.172 95.2319 143 95.2319C143.828 95.2319 144.5 95.9035 144.5 96.7319Z" fill="#F7F7F7" fill-opacity="0.15"/>
<path d="M153.5 96.7319C153.5 97.5604 152.828 98.2319 152 98.2319C151.172 98.2319 150.5 97.5604 150.5 96.7319C150.5 95.9035 151.172 95.2319 152 95.2319C152.828 95.2319 153.5 95.9035 153.5 96.7319Z" fill="#F7F7F7" fill-opacity="0.15"/>
<path d="M63.5 105.732C63.5 106.56 62.8284 107.232 62 107.232C61.1716 107.232 60.5 106.56 60.5 105.732C60.5 104.904 61.1716 104.232 62 104.232C62.8284 104.232 63.5 104.904 63.5 105.732Z" fill="#F7F7F7" fill-opacity="0.15"/>
<path d="M72.5 105.732C72.5 106.56 71.8284 107.232 71 107.232C70.1716 107.232 69.5 106.56 69.5 105.732C69.5 104.904 70.1716 104.232 71 104.232C71.8284 104.232 72.5 104.904 72.5 105.732Z" fill="#F7F7F7" fill-opacity="0.15"/>
<path d="M81.5 105.732C81.5 106.56 80.8284 107.232 80 107.232C79.1716 107.232 78.5 106.56 78.5 105.732C78.5 104.904 79.1716 104.232 80 104.232C80.8284 104.232 81.5 104.904 81.5 105.732Z" fill="#F7F7F7" fill-opacity="0.15"/>
<path d="M90.5 105.732C90.5 106.56 89.8284 107.232 89 107.232C88.1716 107.232 87.5 106.56 87.5 105.732C87.5 104.904 88.1716 104.232 89 104.232C89.8284 104.232 90.5 104.904 90.5 105.732Z" fill="#F7F7F7" fill-opacity="0.15"/>
<path d="M99.5 105.732C99.5 106.56 98.8284 107.232 98 107.232C97.1716 107.232 96.5 106.56 96.5 105.732C96.5 104.904 97.1716 104.232 98 104.232C98.8284 104.232 99.5 104.904 99.5 105.732Z" fill="#F7F7F7" fill-opacity="0.15"/>
<path d="M108.5 105.732C108.5 106.56 107.828 107.232 107 107.232C106.172 107.232 105.5 106.56 105.5 105.732C105.5 104.904 106.172 104.232 107 104.232C107.828 104.232 108.5 104.904 108.5 105.732Z" fill="#F7F7F7" fill-opacity="0.15"/>
<path d="M117.5 105.732C117.5 106.56 116.828 107.232 116 107.232C115.172 107.232 114.5 106.56 114.5 105.732C114.5 104.904 115.172 104.232 116 104.232C116.828 104.232 117.5 104.904 117.5 105.732Z" fill="#F7F7F7" fill-opacity="0.15"/>
<path d="M126.5 105.732C126.5 106.56 125.828 107.232 125 107.232C124.172 107.232 123.5 106.56 123.5 105.732C123.5 104.904 124.172 104.232 125 104.232C125.828 104.232 126.5 104.904 126.5 105.732Z" fill="#F7F7F7" fill-opacity="0.15"/>
<path d="M135.5 105.732C135.5 106.56 134.828 107.232 134 107.232C133.172 107.232 132.5 106.56 132.5 105.732C132.5 104.904 133.172 104.232 134 104.232C134.828 104.232 135.5 104.904 135.5 105.732Z" fill="#F7F7F7" fill-opacity="0.15"/>
<path d="M144.5 105.732C144.5 106.56 143.828 107.232 143 107.232C142.172 107.232 141.5 106.56 141.5 105.732C141.5 104.904 142.172 104.232 143 104.232C143.828 104.232 144.5 104.904 144.5 105.732Z" fill="#F7F7F7" fill-opacity="0.15"/>
<path d="M153.5 105.732C153.5 106.56 152.828 107.232 152 107.232C151.172 107.232 150.5 106.56 150.5 105.732C150.5 104.904 151.172 104.232 152 104.232C152.828 104.232 153.5 104.904 153.5 105.732Z" fill="#F7F7F7" fill-opacity="0.15"/>
<path d="M63.5 114.732C63.5 115.56 62.8284 116.232 62 116.232C61.1716 116.232 60.5 115.56 60.5 114.732C60.5 113.904 61.1716 113.232 62 113.232C62.8284 113.232 63.5 113.904 63.5 114.732Z" fill="#F7F7F7" fill-opacity="0.15"/>
<path d="M72.5 114.732C72.5 115.56 71.8284 116.232 71 116.232C70.1716 116.232 69.5 115.56 69.5 114.732C69.5 113.904 70.1716 113.232 71 113.232C71.8284 113.232 72.5 113.904 72.5 114.732Z" fill="#F7F7F7" fill-opacity="0.15"/>
<path d="M81.5 114.732C81.5 115.56 80.8284 116.232 80 116.232C79.1716 116.232 78.5 115.56 78.5 114.732C78.5 113.904 79.1716 113.232 80 113.232C80.8284 113.232 81.5 113.904 81.5 114.732Z" fill="#F7F7F7" fill-opacity="0.15"/>
<path d="M90.5 114.732C90.5 115.56 89.8284 116.232 89 116.232C88.1716 116.232 87.5 115.56 87.5 114.732C87.5 113.904 88.1716 113.232 89 113.232C89.8284 113.232 90.5 113.904 90.5 114.732Z" fill="#F7F7F7" fill-opacity="0.15"/>
<path d="M99.5 114.732C99.5 115.56 98.8284 116.232 98 116.232C97.1716 116.232 96.5 115.56 96.5 114.732C96.5 113.904 97.1716 113.232 98 113.232C98.8284 113.232 99.5 113.904 99.5 114.732Z" fill="#F7F7F7" fill-opacity="0.15"/>
<path d="M108.5 114.732C108.5 115.56 107.828 116.232 107 116.232C106.172 116.232 105.5 115.56 105.5 114.732C105.5 113.904 106.172 113.232 107 113.232C107.828 113.232 108.5 113.904 108.5 114.732Z" fill="#F7F7F7" fill-opacity="0.15"/>
<path d="M117.5 114.732C117.5 115.56 116.828 116.232 116 116.232C115.172 116.232 114.5 115.56 114.5 114.732C114.5 113.904 115.172 113.232 116 113.232C116.828 113.232 117.5 113.904 117.5 114.732Z" fill="#F7F7F7" fill-opacity="0.15"/>
<path d="M126.5 114.732C126.5 115.56 125.828 116.232 125 116.232C124.172 116.232 123.5 115.56 123.5 114.732C123.5 113.904 124.172 113.232 125 113.232C125.828 113.232 126.5 113.904 126.5 114.732Z" fill="#F7F7F7" fill-opacity="0.15"/>
<path d="M135.5 114.732C135.5 115.56 134.828 116.232 134 116.232C133.172 116.232 132.5 115.56 132.5 114.732C132.5 113.904 133.172 113.232 134 113.232C134.828 113.232 135.5 113.904 135.5 114.732Z" fill="#F7F7F7" fill-opacity="0.15"/>
<path d="M144.5 114.732C144.5 115.56 143.828 116.232 143 116.232C142.172 116.232 141.5 115.56 141.5 114.732C141.5 113.904 142.172 113.232 143 113.232C143.828 113.232 144.5 113.904 144.5 114.732Z" fill="#F7F7F7" fill-opacity="0.15"/>
<path d="M153.5 114.732C153.5 115.56 152.828 116.232 152 116.232C151.172 116.232 150.5 115.56 150.5 114.732C150.5 113.904 151.172 113.232 152 113.232C152.828 113.232 153.5 113.904 153.5 114.732Z" fill="#F7F7F7" fill-opacity="0.15"/>
<path d="M63.5 123.732C63.5 124.56 62.8284 125.232 62 125.232C61.1716 125.232 60.5 124.56 60.5 123.732C60.5 122.904 61.1716 122.232 62 122.232C62.8284 122.232 63.5 122.904 63.5 123.732Z" fill="#F7F7F7" fill-opacity="0.15"/>
<path d="M72.5 123.732C72.5 124.56 71.8284 125.232 71 125.232C70.1716 125.232 69.5 124.56 69.5 123.732C69.5 122.904 70.1716 122.232 71 122.232C71.8284 122.232 72.5 122.904 72.5 123.732Z" fill="#F7F7F7" fill-opacity="0.15"/>
<path d="M81.5 123.732C81.5 124.56 80.8284 125.232 80 125.232C79.1716 125.232 78.5 124.56 78.5 123.732C78.5 122.904 79.1716 122.232 80 122.232C80.8284 122.232 81.5 122.904 81.5 123.732Z" fill="#F7F7F7" fill-opacity="0.15"/>
<path d="M90.5 123.732C90.5 124.56 89.8284 125.232 89 125.232C88.1716 125.232 87.5 124.56 87.5 123.732C87.5 122.904 88.1716 122.232 89 122.232C89.8284 122.232 90.5 122.904 90.5 123.732Z" fill="#F7F7F7" fill-opacity="0.15"/>
<path d="M99.5 123.732C99.5 124.56 98.8284 125.232 98 125.232C97.1716 125.232 96.5 124.56 96.5 123.732C96.5 122.904 97.1716 122.232 98 122.232C98.8284 122.232 99.5 122.904 99.5 123.732Z" fill="#F7F7F7" fill-opacity="0.15"/>
<path d="M108.5 123.732C108.5 124.56 107.828 125.232 107 125.232C106.172 125.232 105.5 124.56 105.5 123.732C105.5 122.904 106.172 122.232 107 122.232C107.828 122.232 108.5 122.904 108.5 123.732Z" fill="#F7F7F7" fill-opacity="0.15"/>
<path d="M117.5 123.732C117.5 124.56 116.828 125.232 116 125.232C115.172 125.232 114.5 124.56 114.5 123.732C114.5 122.904 115.172 122.232 116 122.232C116.828 122.232 117.5 122.904 117.5 123.732Z" fill="#F7F7F7" fill-opacity="0.15"/>
<path d="M126.5 123.732C126.5 124.56 125.828 125.232 125 125.232C124.172 125.232 123.5 124.56 123.5 123.732C123.5 122.904 124.172 122.232 125 122.232C125.828 122.232 126.5 122.904 126.5 123.732Z" fill="#F7F7F7" fill-opacity="0.15"/>
<path d="M135.5 123.732C135.5 124.56 134.828 125.232 134 125.232C133.172 125.232 132.5 124.56 132.5 123.732C132.5 122.904 133.172 122.232 134 122.232C134.828 122.232 135.5 122.904 135.5 123.732Z" fill="#F7F7F7" fill-opacity="0.15"/>
<path d="M144.5 123.732C144.5 124.56 143.828 125.232 143 125.232C142.172 125.232 141.5 124.56 141.5 123.732C141.5 122.904 142.172 122.232 143 122.232C143.828 122.232 144.5 122.904 144.5 123.732Z" fill="#F7F7F7" fill-opacity="0.15"/>
<path d="M153.5 123.732C153.5 124.56 152.828 125.232 152 125.232C151.172 125.232 150.5 124.56 150.5 123.732C150.5 122.904 151.172 122.232 152 122.232C152.828 122.232 153.5 122.904 153.5 123.732Z" fill="#F7F7F7" fill-opacity="0.15"/>
<path d="M63.5 132.732C63.5 133.56 62.8284 134.232 62 134.232C61.1716 134.232 60.5 133.56 60.5 132.732C60.5 131.904 61.1716 131.232 62 131.232C62.8284 131.232 63.5 131.904 63.5 132.732Z" fill="#F7F7F7" fill-opacity="0.15"/>
<path d="M72.5 132.732C72.5 133.56 71.8284 134.232 71 134.232C70.1716 134.232 69.5 133.56 69.5 132.732C69.5 131.904 70.1716 131.232 71 131.232C71.8284 131.232 72.5 131.904 72.5 132.732Z" fill="#F7F7F7" fill-opacity="0.15"/>
<path d="M81.5 132.732C81.5 133.56 80.8284 134.232 80 134.232C79.1716 134.232 78.5 133.56 78.5 132.732C78.5 131.904 79.1716 131.232 80 131.232C80.8284 131.232 81.5 131.904 81.5 132.732Z" fill="#F7F7F7" fill-opacity="0.15"/>
<path d="M90.5 132.732C90.5 133.56 89.8284 134.232 89 134.232C88.1716 134.232 87.5 133.56 87.5 132.732C87.5 131.904 88.1716 131.232 89 131.232C89.8284 131.232 90.5 131.904 90.5 132.732Z" fill="#F7F7F7" fill-opacity="0.15"/>
<path d="M99.5 132.732C99.5 133.56 98.8284 134.232 98 134.232C97.1716 134.232 96.5 133.56 96.5 132.732C96.5 131.904 97.1716 131.232 98 131.232C98.8284 131.232 99.5 131.904 99.5 132.732Z" fill="#F7F7F7" fill-opacity="0.15"/>
<path d="M108.5 132.732C108.5 133.56 107.828 134.232 107 134.232C106.172 134.232 105.5 133.56 105.5 132.732C105.5 131.904 106.172 131.232 107 131.232C107.828 131.232 108.5 131.904 108.5 132.732Z" fill="#F7F7F7" fill-opacity="0.15"/>
<path d="M117.5 132.732C117.5 133.56 116.828 134.232 116 134.232C115.172 134.232 114.5 133.56 114.5 132.732C114.5 131.904 115.172 131.232 116 131.232C116.828 131.232 117.5 131.904 117.5 132.732Z" fill="#F7F7F7" fill-opacity="0.15"/>
<path d="M126.5 132.732C126.5 133.56 125.828 134.232 125 134.232C124.172 134.232 123.5 133.56 123.5 132.732C123.5 131.904 124.172 131.232 125 131.232C125.828 131.232 126.5 131.904 126.5 132.732Z" fill="#F7F7F7" fill-opacity="0.15"/>
<path d="M135.5 132.732C135.5 133.56 134.828 134.232 134 134.232C133.172 134.232 132.5 133.56 132.5 132.732C132.5 131.904 133.172 131.232 134 131.232C134.828 131.232 135.5 131.904 135.5 132.732Z" fill="#F7F7F7" fill-opacity="0.15"/>
<path d="M144.5 132.732C144.5 133.56 143.828 134.232 143 134.232C142.172 134.232 141.5 133.56 141.5 132.732C141.5 131.904 142.172 131.232 143 131.232C143.828 131.232 144.5 131.904 144.5 132.732Z" fill="#F7F7F7" fill-opacity="0.15"/>
<path d="M153.5 132.732C153.5 133.56 152.828 134.232 152 134.232C151.172 134.232 150.5 133.56 150.5 132.732C150.5 131.904 151.172 131.232 152 131.232C152.828 131.232 153.5 131.904 153.5 132.732Z" fill="#F7F7F7" fill-opacity="0.15"/>
</g>
<rect x="1.5" y="1.46387" width="118" height="118" rx="59" stroke="url(#paint0_linear)" stroke-width="2"/>
<path d="M49.7174 74.7564L49.737 74.7933L49.7581 74.8294C51.1407 77.1948 54.6958 83.2639 63.6618 83.2639C67.54 83.2639 70.2848 82.1511 72.3275 80.4978C74.1546 79.019 75.319 77.1709 76.1857 75.7955C76.2492 75.6947 76.3111 75.5965 76.3715 75.5012C78.7366 71.8075 78.4618 67.3171 78.4618 67.3972V53.5305C78.4618 52.4547 78.1354 51.3576 77.2992 50.5309C76.4668 49.7081 75.376 49.3972 74.3285 49.3972C73.4913 49.3972 72.6265 49.5958 71.888 50.0955C71.7126 49.4749 71.3958 48.8886 70.8992 48.3976C70.0668 47.5747 68.976 47.2639 67.9285 47.2639C67.0913 47.2639 66.2265 47.4624 65.488 47.9622C65.3126 47.3416 64.9958 46.7552 64.4992 46.2643C63.6668 45.4414 62.576 45.1305 61.5285 45.1305C60.7561 45.1305 59.9603 45.2995 59.2618 45.7181V38.5972C59.2618 37.5214 58.9354 36.4243 58.0992 35.5976C57.2668 34.7747 56.176 34.4639 55.1285 34.4639C54.081 34.4639 52.9901 34.7747 52.1577 35.5976C51.3215 36.4243 50.9951 37.5214 50.9951 38.5972V61.0446C50.9282 60.9916 50.8603 60.938 50.7917 60.8838C49.7618 60.0704 48.5162 59.0943 47.738 58.5247L47.738 58.5247L47.7298 58.5186C46.6685 57.7502 45.4638 57.1321 44.1247 57.1321C42.1807 57.1321 40.8505 58.4221 39.9616 59.849L39.9567 59.8568L39.952 59.8646C38.9983 61.4272 39.7447 62.9462 40.3163 63.7874C40.9132 64.6658 41.8547 65.6173 42.8136 66.5695C43.0193 66.7819 43.2023 66.966 43.3765 67.1414C43.6237 67.3902 43.8533 67.6213 44.1058 67.8906L44.1067 67.8915C47.0798 71.058 48.5097 72.7893 49.4038 74.2226L49.4219 74.2516L49.4409 74.28C49.5135 74.3879 49.6045 74.5432 49.7174 74.7564Z" stroke="url(#paint1_linear)" stroke-width="4"/>
<defs>
<linearGradient id="paint0_linear" x1="120.5" y1="120.464" x2="-12.5441" y2="103.644" gradientUnits="userSpaceOnUse">
<stop stop-color="#F9096C"/>
<stop offset="1" stop-color="#FE6C6A"/>
</linearGradient>
<linearGradient id="paint1_linear" x1="76.4692" y1="81.2639" x2="37.4591" y2="77.4144" gradientUnits="userSpaceOnUse">
<stop stop-color="#F9096C"/>
<stop offset="1" stop-color="#FE6C6A"/>
</linearGradient>
<clipPath id="clip0">
<path d="M60.5 41.2319H160.5V141.232H60.5V41.2319Z" fill="white"/>
</clipPath>
</defs>
</svg>
