<svg width="160" height="141" viewBox="0 0 160 141" fill="none" xmlns="http://www.w3.org/2000/svg">
<path d="M63 42.5C63 43.3284 62.3284 44 61.5 44C60.6716 44 60 43.3284 60 42.5C60 41.6716 60.6716 41 61.5 41C62.3284 41 63 41.6716 63 42.5Z" fill="#F7F7F7" fill-opacity="0.15"/>
<path d="M72 42.5C72 43.3284 71.3284 44 70.5 44C69.6716 44 69 43.3284 69 42.5C69 41.6716 69.6716 41 70.5 41C71.3284 41 72 41.6716 72 42.5Z" fill="#F7F7F7" fill-opacity="0.15"/>
<path d="M81 42.5C81 43.3284 80.3284 44 79.5 44C78.6716 44 78 43.3284 78 42.5C78 41.6716 78.6716 41 79.5 41C80.3284 41 81 41.6716 81 42.5Z" fill="#F7F7F7" fill-opacity="0.15"/>
<path d="M90 42.5C90 43.3284 89.3284 44 88.5 44C87.6716 44 87 43.3284 87 42.5C87 41.6716 87.6716 41 88.5 41C89.3284 41 90 41.6716 90 42.5Z" fill="#F7F7F7" fill-opacity="0.15"/>
<path d="M99 42.5C99 43.3284 98.3284 44 97.5 44C96.6716 44 96 43.3284 96 42.5C96 41.6716 96.6716 41 97.5 41C98.3284 41 99 41.6716 99 42.5Z" fill="#F7F7F7" fill-opacity="0.15"/>
<path d="M108 42.5C108 43.3284 107.328 44 106.5 44C105.672 44 105 43.3284 105 42.5C105 41.6716 105.672 41 106.5 41C107.328 41 108 41.6716 108 42.5Z" fill="#F7F7F7" fill-opacity="0.15"/>
<path d="M117 42.5C117 43.3284 116.328 44 115.5 44C114.672 44 114 43.3284 114 42.5C114 41.6716 114.672 41 115.5 41C116.328 41 117 41.6716 117 42.5Z" fill="#F7F7F7" fill-opacity="0.15"/>
<path d="M126 42.5C126 43.3284 125.328 44 124.5 44C123.672 44 123 43.3284 123 42.5C123 41.6716 123.672 41 124.5 41C125.328 41 126 41.6716 126 42.5Z" fill="#F7F7F7" fill-opacity="0.15"/>
<path d="M135 42.5C135 43.3284 134.328 44 133.5 44C132.672 44 132 43.3284 132 42.5C132 41.6716 132.672 41 133.5 41C134.328 41 135 41.6716 135 42.5Z" fill="#F7F7F7" fill-opacity="0.15"/>
<path d="M144 42.5C144 43.3284 143.328 44 142.5 44C141.672 44 141 43.3284 141 42.5C141 41.6716 141.672 41 142.5 41C143.328 41 144 41.6716 144 42.5Z" fill="#F7F7F7" fill-opacity="0.15"/>
<path d="M153 42.5C153 43.3284 152.328 44 151.5 44C150.672 44 150 43.3284 150 42.5C150 41.6716 150.672 41 151.5 41C152.328 41 153 41.6716 153 42.5Z" fill="#F7F7F7" fill-opacity="0.15"/>
<path d="M63 51.5C63 52.3284 62.3284 53 61.5 53C60.6716 53 60 52.3284 60 51.5C60 50.6716 60.6716 50 61.5 50C62.3284 50 63 50.6716 63 51.5Z" fill="#F7F7F7" fill-opacity="0.15"/>
<path d="M72 51.5C72 52.3284 71.3284 53 70.5 53C69.6716 53 69 52.3284 69 51.5C69 50.6716 69.6716 50 70.5 50C71.3284 50 72 50.6716 72 51.5Z" fill="#F7F7F7" fill-opacity="0.15"/>
<path d="M81 51.5C81 52.3284 80.3284 53 79.5 53C78.6716 53 78 52.3284 78 51.5C78 50.6716 78.6716 50 79.5 50C80.3284 50 81 50.6716 81 51.5Z" fill="#F7F7F7" fill-opacity="0.15"/>
<path d="M90 51.5C90 52.3284 89.3284 53 88.5 53C87.6716 53 87 52.3284 87 51.5C87 50.6716 87.6716 50 88.5 50C89.3284 50 90 50.6716 90 51.5Z" fill="#F7F7F7" fill-opacity="0.15"/>
<path d="M99 51.5C99 52.3284 98.3284 53 97.5 53C96.6716 53 96 52.3284 96 51.5C96 50.6716 96.6716 50 97.5 50C98.3284 50 99 50.6716 99 51.5Z" fill="#F7F7F7" fill-opacity="0.15"/>
<path d="M108 51.5C108 52.3284 107.328 53 106.5 53C105.672 53 105 52.3284 105 51.5C105 50.6716 105.672 50 106.5 50C107.328 50 108 50.6716 108 51.5Z" fill="#F7F7F7" fill-opacity="0.15"/>
<path d="M117 51.5C117 52.3284 116.328 53 115.5 53C114.672 53 114 52.3284 114 51.5C114 50.6716 114.672 50 115.5 50C116.328 50 117 50.6716 117 51.5Z" fill="#F7F7F7" fill-opacity="0.15"/>
<path d="M126 51.5C126 52.3284 125.328 53 124.5 53C123.672 53 123 52.3284 123 51.5C123 50.6716 123.672 50 124.5 50C125.328 50 126 50.6716 126 51.5Z" fill="#F7F7F7" fill-opacity="0.15"/>
<path d="M135 51.5C135 52.3284 134.328 53 133.5 53C132.672 53 132 52.3284 132 51.5C132 50.6716 132.672 50 133.5 50C134.328 50 135 50.6716 135 51.5Z" fill="#F7F7F7" fill-opacity="0.15"/>
<path d="M144 51.5C144 52.3284 143.328 53 142.5 53C141.672 53 141 52.3284 141 51.5C141 50.6716 141.672 50 142.5 50C143.328 50 144 50.6716 144 51.5Z" fill="#F7F7F7" fill-opacity="0.15"/>
<path d="M153 51.5C153 52.3284 152.328 53 151.5 53C150.672 53 150 52.3284 150 51.5C150 50.6716 150.672 50 151.5 50C152.328 50 153 50.6716 153 51.5Z" fill="#F7F7F7" fill-opacity="0.15"/>
<path d="M63 60.5C63 61.3284 62.3284 62 61.5 62C60.6716 62 60 61.3284 60 60.5C60 59.6716 60.6716 59 61.5 59C62.3284 59 63 59.6716 63 60.5Z" fill="#F7F7F7" fill-opacity="0.15"/>
<path d="M72 60.5C72 61.3284 71.3284 62 70.5 62C69.6716 62 69 61.3284 69 60.5C69 59.6716 69.6716 59 70.5 59C71.3284 59 72 59.6716 72 60.5Z" fill="#F7F7F7" fill-opacity="0.15"/>
<path d="M81 60.5C81 61.3284 80.3284 62 79.5 62C78.6716 62 78 61.3284 78 60.5C78 59.6716 78.6716 59 79.5 59C80.3284 59 81 59.6716 81 60.5Z" fill="#F7F7F7" fill-opacity="0.15"/>
<path d="M90 60.5C90 61.3284 89.3284 62 88.5 62C87.6716 62 87 61.3284 87 60.5C87 59.6716 87.6716 59 88.5 59C89.3284 59 90 59.6716 90 60.5Z" fill="#F7F7F7" fill-opacity="0.15"/>
<path d="M99 60.5C99 61.3284 98.3284 62 97.5 62C96.6716 62 96 61.3284 96 60.5C96 59.6716 96.6716 59 97.5 59C98.3284 59 99 59.6716 99 60.5Z" fill="#F7F7F7" fill-opacity="0.15"/>
<path d="M108 60.5C108 61.3284 107.328 62 106.5 62C105.672 62 105 61.3284 105 60.5C105 59.6716 105.672 59 106.5 59C107.328 59 108 59.6716 108 60.5Z" fill="#F7F7F7" fill-opacity="0.15"/>
<path d="M117 60.5C117 61.3284 116.328 62 115.5 62C114.672 62 114 61.3284 114 60.5C114 59.6716 114.672 59 115.5 59C116.328 59 117 59.6716 117 60.5Z" fill="#F7F7F7" fill-opacity="0.15"/>
<path d="M126 60.5C126 61.3284 125.328 62 124.5 62C123.672 62 123 61.3284 123 60.5C123 59.6716 123.672 59 124.5 59C125.328 59 126 59.6716 126 60.5Z" fill="#F7F7F7" fill-opacity="0.15"/>
<path d="M135 60.5C135 61.3284 134.328 62 133.5 62C132.672 62 132 61.3284 132 60.5C132 59.6716 132.672 59 133.5 59C134.328 59 135 59.6716 135 60.5Z" fill="#F7F7F7" fill-opacity="0.15"/>
<path d="M144 60.5C144 61.3284 143.328 62 142.5 62C141.672 62 141 61.3284 141 60.5C141 59.6716 141.672 59 142.5 59C143.328 59 144 59.6716 144 60.5Z" fill="#F7F7F7" fill-opacity="0.15"/>
<path d="M153 60.5C153 61.3284 152.328 62 151.5 62C150.672 62 150 61.3284 150 60.5C150 59.6716 150.672 59 151.5 59C152.328 59 153 59.6716 153 60.5Z" fill="#F7F7F7" fill-opacity="0.15"/>
<path d="M63 69.5C63 70.3284 62.3284 71 61.5 71C60.6716 71 60 70.3284 60 69.5C60 68.6716 60.6716 68 61.5 68C62.3284 68 63 68.6716 63 69.5Z" fill="#F7F7F7" fill-opacity="0.15"/>
<path d="M72 69.5C72 70.3284 71.3284 71 70.5 71C69.6716 71 69 70.3284 69 69.5C69 68.6716 69.6716 68 70.5 68C71.3284 68 72 68.6716 72 69.5Z" fill="#F7F7F7" fill-opacity="0.15"/>
<path d="M81 69.5C81 70.3284 80.3284 71 79.5 71C78.6716 71 78 70.3284 78 69.5C78 68.6716 78.6716 68 79.5 68C80.3284 68 81 68.6716 81 69.5Z" fill="#F7F7F7" fill-opacity="0.15"/>
<path d="M90 69.5C90 70.3284 89.3284 71 88.5 71C87.6716 71 87 70.3284 87 69.5C87 68.6716 87.6716 68 88.5 68C89.3284 68 90 68.6716 90 69.5Z" fill="#F7F7F7" fill-opacity="0.15"/>
<path d="M99 69.5C99 70.3284 98.3284 71 97.5 71C96.6716 71 96 70.3284 96 69.5C96 68.6716 96.6716 68 97.5 68C98.3284 68 99 68.6716 99 69.5Z" fill="#F7F7F7" fill-opacity="0.15"/>
<path d="M108 69.5C108 70.3284 107.328 71 106.5 71C105.672 71 105 70.3284 105 69.5C105 68.6716 105.672 68 106.5 68C107.328 68 108 68.6716 108 69.5Z" fill="#F7F7F7" fill-opacity="0.15"/>
<path d="M117 69.5C117 70.3284 116.328 71 115.5 71C114.672 71 114 70.3284 114 69.5C114 68.6716 114.672 68 115.5 68C116.328 68 117 68.6716 117 69.5Z" fill="#F7F7F7" fill-opacity="0.15"/>
<path d="M126 69.5C126 70.3284 125.328 71 124.5 71C123.672 71 123 70.3284 123 69.5C123 68.6716 123.672 68 124.5 68C125.328 68 126 68.6716 126 69.5Z" fill="#F7F7F7" fill-opacity="0.15"/>
<path d="M135 69.5C135 70.3284 134.328 71 133.5 71C132.672 71 132 70.3284 132 69.5C132 68.6716 132.672 68 133.5 68C134.328 68 135 68.6716 135 69.5Z" fill="#F7F7F7" fill-opacity="0.15"/>
<path d="M144 69.5C144 70.3284 143.328 71 142.5 71C141.672 71 141 70.3284 141 69.5C141 68.6716 141.672 68 142.5 68C143.328 68 144 68.6716 144 69.5Z" fill="#F7F7F7" fill-opacity="0.15"/>
<path d="M153 69.5C153 70.3284 152.328 71 151.5 71C150.672 71 150 70.3284 150 69.5C150 68.6716 150.672 68 151.5 68C152.328 68 153 68.6716 153 69.5Z" fill="#F7F7F7" fill-opacity="0.15"/>
<path d="M63 78.5C63 79.3284 62.3284 80 61.5 80C60.6716 80 60 79.3284 60 78.5C60 77.6716 60.6716 77 61.5 77C62.3284 77 63 77.6716 63 78.5Z" fill="#F7F7F7" fill-opacity="0.15"/>
<path d="M72 78.5C72 79.3284 71.3284 80 70.5 80C69.6716 80 69 79.3284 69 78.5C69 77.6716 69.6716 77 70.5 77C71.3284 77 72 77.6716 72 78.5Z" fill="#F7F7F7" fill-opacity="0.15"/>
<path d="M81 78.5C81 79.3284 80.3284 80 79.5 80C78.6716 80 78 79.3284 78 78.5C78 77.6716 78.6716 77 79.5 77C80.3284 77 81 77.6716 81 78.5Z" fill="#F7F7F7" fill-opacity="0.15"/>
<path d="M90 78.5C90 79.3284 89.3284 80 88.5 80C87.6716 80 87 79.3284 87 78.5C87 77.6716 87.6716 77 88.5 77C89.3284 77 90 77.6716 90 78.5Z" fill="#F7F7F7" fill-opacity="0.15"/>
<path d="M99 78.5C99 79.3284 98.3284 80 97.5 80C96.6716 80 96 79.3284 96 78.5C96 77.6716 96.6716 77 97.5 77C98.3284 77 99 77.6716 99 78.5Z" fill="#F7F7F7" fill-opacity="0.15"/>
<path d="M108 78.5C108 79.3284 107.328 80 106.5 80C105.672 80 105 79.3284 105 78.5C105 77.6716 105.672 77 106.5 77C107.328 77 108 77.6716 108 78.5Z" fill="#F7F7F7" fill-opacity="0.15"/>
<path d="M117 78.5C117 79.3284 116.328 80 115.5 80C114.672 80 114 79.3284 114 78.5C114 77.6716 114.672 77 115.5 77C116.328 77 117 77.6716 117 78.5Z" fill="#F7F7F7" fill-opacity="0.15"/>
<path d="M126 78.5C126 79.3284 125.328 80 124.5 80C123.672 80 123 79.3284 123 78.5C123 77.6716 123.672 77 124.5 77C125.328 77 126 77.6716 126 78.5Z" fill="#F7F7F7" fill-opacity="0.15"/>
<path d="M135 78.5C135 79.3284 134.328 80 133.5 80C132.672 80 132 79.3284 132 78.5C132 77.6716 132.672 77 133.5 77C134.328 77 135 77.6716 135 78.5Z" fill="#F7F7F7" fill-opacity="0.15"/>
<path d="M144 78.5C144 79.3284 143.328 80 142.5 80C141.672 80 141 79.3284 141 78.5C141 77.6716 141.672 77 142.5 77C143.328 77 144 77.6716 144 78.5Z" fill="#F7F7F7" fill-opacity="0.15"/>
<path d="M153 78.5C153 79.3284 152.328 80 151.5 80C150.672 80 150 79.3284 150 78.5C150 77.6716 150.672 77 151.5 77C152.328 77 153 77.6716 153 78.5Z" fill="#F7F7F7" fill-opacity="0.15"/>
<path d="M63 87.5C63 88.3284 62.3284 89 61.5 89C60.6716 89 60 88.3284 60 87.5C60 86.6716 60.6716 86 61.5 86C62.3284 86 63 86.6716 63 87.5Z" fill="#F7F7F7" fill-opacity="0.15"/>
<path d="M72 87.5C72 88.3284 71.3284 89 70.5 89C69.6716 89 69 88.3284 69 87.5C69 86.6716 69.6716 86 70.5 86C71.3284 86 72 86.6716 72 87.5Z" fill="#F7F7F7" fill-opacity="0.15"/>
<path d="M81 87.5C81 88.3284 80.3284 89 79.5 89C78.6716 89 78 88.3284 78 87.5C78 86.6716 78.6716 86 79.5 86C80.3284 86 81 86.6716 81 87.5Z" fill="#F7F7F7" fill-opacity="0.15"/>
<path d="M90 87.5C90 88.3284 89.3284 89 88.5 89C87.6716 89 87 88.3284 87 87.5C87 86.6716 87.6716 86 88.5 86C89.3284 86 90 86.6716 90 87.5Z" fill="#F7F7F7" fill-opacity="0.15"/>
<path d="M99 87.5C99 88.3284 98.3284 89 97.5 89C96.6716 89 96 88.3284 96 87.5C96 86.6716 96.6716 86 97.5 86C98.3284 86 99 86.6716 99 87.5Z" fill="#F7F7F7" fill-opacity="0.15"/>
<path d="M108 87.5C108 88.3284 107.328 89 106.5 89C105.672 89 105 88.3284 105 87.5C105 86.6716 105.672 86 106.5 86C107.328 86 108 86.6716 108 87.5Z" fill="#F7F7F7" fill-opacity="0.15"/>
<path d="M117 87.5C117 88.3284 116.328 89 115.5 89C114.672 89 114 88.3284 114 87.5C114 86.6716 114.672 86 115.5 86C116.328 86 117 86.6716 117 87.5Z" fill="#F7F7F7" fill-opacity="0.15"/>
<path d="M126 87.5C126 88.3284 125.328 89 124.5 89C123.672 89 123 88.3284 123 87.5C123 86.6716 123.672 86 124.5 86C125.328 86 126 86.6716 126 87.5Z" fill="#F7F7F7" fill-opacity="0.15"/>
<path d="M135 87.5C135 88.3284 134.328 89 133.5 89C132.672 89 132 88.3284 132 87.5C132 86.6716 132.672 86 133.5 86C134.328 86 135 86.6716 135 87.5Z" fill="#F7F7F7" fill-opacity="0.15"/>
<path d="M144 87.5C144 88.3284 143.328 89 142.5 89C141.672 89 141 88.3284 141 87.5C141 86.6716 141.672 86 142.5 86C143.328 86 144 86.6716 144 87.5Z" fill="#F7F7F7" fill-opacity="0.15"/>
<path d="M153 87.5C153 88.3284 152.328 89 151.5 89C150.672 89 150 88.3284 150 87.5C150 86.6716 150.672 86 151.5 86C152.328 86 153 86.6716 153 87.5Z" fill="#F7F7F7" fill-opacity="0.15"/>
<path d="M63 96.5C63 97.3284 62.3284 98 61.5 98C60.6716 98 60 97.3284 60 96.5C60 95.6716 60.6716 95 61.5 95C62.3284 95 63 95.6716 63 96.5Z" fill="#F7F7F7" fill-opacity="0.15"/>
<path d="M72 96.5C72 97.3284 71.3284 98 70.5 98C69.6716 98 69 97.3284 69 96.5C69 95.6716 69.6716 95 70.5 95C71.3284 95 72 95.6716 72 96.5Z" fill="#F7F7F7" fill-opacity="0.15"/>
<path d="M81 96.5C81 97.3284 80.3284 98 79.5 98C78.6716 98 78 97.3284 78 96.5C78 95.6716 78.6716 95 79.5 95C80.3284 95 81 95.6716 81 96.5Z" fill="#F7F7F7" fill-opacity="0.15"/>
<path d="M90 96.5C90 97.3284 89.3284 98 88.5 98C87.6716 98 87 97.3284 87 96.5C87 95.6716 87.6716 95 88.5 95C89.3284 95 90 95.6716 90 96.5Z" fill="#F7F7F7" fill-opacity="0.15"/>
<path d="M99 96.5C99 97.3284 98.3284 98 97.5 98C96.6716 98 96 97.3284 96 96.5C96 95.6716 96.6716 95 97.5 95C98.3284 95 99 95.6716 99 96.5Z" fill="#F7F7F7" fill-opacity="0.15"/>
<path d="M108 96.5C108 97.3284 107.328 98 106.5 98C105.672 98 105 97.3284 105 96.5C105 95.6716 105.672 95 106.5 95C107.328 95 108 95.6716 108 96.5Z" fill="#F7F7F7" fill-opacity="0.15"/>
<path d="M117 96.5C117 97.3284 116.328 98 115.5 98C114.672 98 114 97.3284 114 96.5C114 95.6716 114.672 95 115.5 95C116.328 95 117 95.6716 117 96.5Z" fill="#F7F7F7" fill-opacity="0.15"/>
<path d="M126 96.5C126 97.3284 125.328 98 124.5 98C123.672 98 123 97.3284 123 96.5C123 95.6716 123.672 95 124.5 95C125.328 95 126 95.6716 126 96.5Z" fill="#F7F7F7" fill-opacity="0.15"/>
<path d="M135 96.5C135 97.3284 134.328 98 133.5 98C132.672 98 132 97.3284 132 96.5C132 95.6716 132.672 95 133.5 95C134.328 95 135 95.6716 135 96.5Z" fill="#F7F7F7" fill-opacity="0.15"/>
<path d="M144 96.5C144 97.3284 143.328 98 142.5 98C141.672 98 141 97.3284 141 96.5C141 95.6716 141.672 95 142.5 95C143.328 95 144 95.6716 144 96.5Z" fill="#F7F7F7" fill-opacity="0.15"/>
<path d="M153 96.5C153 97.3284 152.328 98 151.5 98C150.672 98 150 97.3284 150 96.5C150 95.6716 150.672 95 151.5 95C152.328 95 153 95.6716 153 96.5Z" fill="#F7F7F7" fill-opacity="0.15"/>
<path d="M63 105.5C63 106.328 62.3284 107 61.5 107C60.6716 107 60 106.328 60 105.5C60 104.672 60.6716 104 61.5 104C62.3284 104 63 104.672 63 105.5Z" fill="#F7F7F7" fill-opacity="0.15"/>
<path d="M72 105.5C72 106.328 71.3284 107 70.5 107C69.6716 107 69 106.328 69 105.5C69 104.672 69.6716 104 70.5 104C71.3284 104 72 104.672 72 105.5Z" fill="#F7F7F7" fill-opacity="0.15"/>
<path d="M81 105.5C81 106.328 80.3284 107 79.5 107C78.6716 107 78 106.328 78 105.5C78 104.672 78.6716 104 79.5 104C80.3284 104 81 104.672 81 105.5Z" fill="#F7F7F7" fill-opacity="0.15"/>
<path d="M90 105.5C90 106.328 89.3284 107 88.5 107C87.6716 107 87 106.328 87 105.5C87 104.672 87.6716 104 88.5 104C89.3284 104 90 104.672 90 105.5Z" fill="#F7F7F7" fill-opacity="0.15"/>
<path d="M99 105.5C99 106.328 98.3284 107 97.5 107C96.6716 107 96 106.328 96 105.5C96 104.672 96.6716 104 97.5 104C98.3284 104 99 104.672 99 105.5Z" fill="#F7F7F7" fill-opacity="0.15"/>
<path d="M108 105.5C108 106.328 107.328 107 106.5 107C105.672 107 105 106.328 105 105.5C105 104.672 105.672 104 106.5 104C107.328 104 108 104.672 108 105.5Z" fill="#F7F7F7" fill-opacity="0.15"/>
<path d="M117 105.5C117 106.328 116.328 107 115.5 107C114.672 107 114 106.328 114 105.5C114 104.672 114.672 104 115.5 104C116.328 104 117 104.672 117 105.5Z" fill="#F7F7F7" fill-opacity="0.15"/>
<path d="M126 105.5C126 106.328 125.328 107 124.5 107C123.672 107 123 106.328 123 105.5C123 104.672 123.672 104 124.5 104C125.328 104 126 104.672 126 105.5Z" fill="#F7F7F7" fill-opacity="0.15"/>
<path d="M135 105.5C135 106.328 134.328 107 133.5 107C132.672 107 132 106.328 132 105.5C132 104.672 132.672 104 133.5 104C134.328 104 135 104.672 135 105.5Z" fill="#F7F7F7" fill-opacity="0.15"/>
<path d="M144 105.5C144 106.328 143.328 107 142.5 107C141.672 107 141 106.328 141 105.5C141 104.672 141.672 104 142.5 104C143.328 104 144 104.672 144 105.5Z" fill="#F7F7F7" fill-opacity="0.15"/>
<path d="M153 105.5C153 106.328 152.328 107 151.5 107C150.672 107 150 106.328 150 105.5C150 104.672 150.672 104 151.5 104C152.328 104 153 104.672 153 105.5Z" fill="#F7F7F7" fill-opacity="0.15"/>
<path d="M63 114.5C63 115.328 62.3284 116 61.5 116C60.6716 116 60 115.328 60 114.5C60 113.672 60.6716 113 61.5 113C62.3284 113 63 113.672 63 114.5Z" fill="#F7F7F7" fill-opacity="0.15"/>
<path d="M72 114.5C72 115.328 71.3284 116 70.5 116C69.6716 116 69 115.328 69 114.5C69 113.672 69.6716 113 70.5 113C71.3284 113 72 113.672 72 114.5Z" fill="#F7F7F7" fill-opacity="0.15"/>
<path d="M81 114.5C81 115.328 80.3284 116 79.5 116C78.6716 116 78 115.328 78 114.5C78 113.672 78.6716 113 79.5 113C80.3284 113 81 113.672 81 114.5Z" fill="#F7F7F7" fill-opacity="0.15"/>
<path d="M90 114.5C90 115.328 89.3284 116 88.5 116C87.6716 116 87 115.328 87 114.5C87 113.672 87.6716 113 88.5 113C89.3284 113 90 113.672 90 114.5Z" fill="#F7F7F7" fill-opacity="0.15"/>
<path d="M99 114.5C99 115.328 98.3284 116 97.5 116C96.6716 116 96 115.328 96 114.5C96 113.672 96.6716 113 97.5 113C98.3284 113 99 113.672 99 114.5Z" fill="#F7F7F7" fill-opacity="0.15"/>
<path d="M108 114.5C108 115.328 107.328 116 106.5 116C105.672 116 105 115.328 105 114.5C105 113.672 105.672 113 106.5 113C107.328 113 108 113.672 108 114.5Z" fill="#F7F7F7" fill-opacity="0.15"/>
<path d="M117 114.5C117 115.328 116.328 116 115.5 116C114.672 116 114 115.328 114 114.5C114 113.672 114.672 113 115.5 113C116.328 113 117 113.672 117 114.5Z" fill="#F7F7F7" fill-opacity="0.15"/>
<path d="M126 114.5C126 115.328 125.328 116 124.5 116C123.672 116 123 115.328 123 114.5C123 113.672 123.672 113 124.5 113C125.328 113 126 113.672 126 114.5Z" fill="#F7F7F7" fill-opacity="0.15"/>
<path d="M135 114.5C135 115.328 134.328 116 133.5 116C132.672 116 132 115.328 132 114.5C132 113.672 132.672 113 133.5 113C134.328 113 135 113.672 135 114.5Z" fill="#F7F7F7" fill-opacity="0.15"/>
<path d="M144 114.5C144 115.328 143.328 116 142.5 116C141.672 116 141 115.328 141 114.5C141 113.672 141.672 113 142.5 113C143.328 113 144 113.672 144 114.5Z" fill="#F7F7F7" fill-opacity="0.15"/>
<path d="M153 114.5C153 115.328 152.328 116 151.5 116C150.672 116 150 115.328 150 114.5C150 113.672 150.672 113 151.5 113C152.328 113 153 113.672 153 114.5Z" fill="#F7F7F7" fill-opacity="0.15"/>
<path d="M63 123.5C63 124.328 62.3284 125 61.5 125C60.6716 125 60 124.328 60 123.5C60 122.672 60.6716 122 61.5 122C62.3284 122 63 122.672 63 123.5Z" fill="#F7F7F7" fill-opacity="0.15"/>
<path d="M72 123.5C72 124.328 71.3284 125 70.5 125C69.6716 125 69 124.328 69 123.5C69 122.672 69.6716 122 70.5 122C71.3284 122 72 122.672 72 123.5Z" fill="#F7F7F7" fill-opacity="0.15"/>
<path d="M81 123.5C81 124.328 80.3284 125 79.5 125C78.6716 125 78 124.328 78 123.5C78 122.672 78.6716 122 79.5 122C80.3284 122 81 122.672 81 123.5Z" fill="#F7F7F7" fill-opacity="0.15"/>
<path d="M90 123.5C90 124.328 89.3284 125 88.5 125C87.6716 125 87 124.328 87 123.5C87 122.672 87.6716 122 88.5 122C89.3284 122 90 122.672 90 123.5Z" fill="#F7F7F7" fill-opacity="0.15"/>
<path d="M99 123.5C99 124.328 98.3284 125 97.5 125C96.6716 125 96 124.328 96 123.5C96 122.672 96.6716 122 97.5 122C98.3284 122 99 122.672 99 123.5Z" fill="#F7F7F7" fill-opacity="0.15"/>
<path d="M108 123.5C108 124.328 107.328 125 106.5 125C105.672 125 105 124.328 105 123.5C105 122.672 105.672 122 106.5 122C107.328 122 108 122.672 108 123.5Z" fill="#F7F7F7" fill-opacity="0.15"/>
<path d="M117 123.5C117 124.328 116.328 125 115.5 125C114.672 125 114 124.328 114 123.5C114 122.672 114.672 122 115.5 122C116.328 122 117 122.672 117 123.5Z" fill="#F7F7F7" fill-opacity="0.15"/>
<path d="M126 123.5C126 124.328 125.328 125 124.5 125C123.672 125 123 124.328 123 123.5C123 122.672 123.672 122 124.5 122C125.328 122 126 122.672 126 123.5Z" fill="#F7F7F7" fill-opacity="0.15"/>
<path d="M135 123.5C135 124.328 134.328 125 133.5 125C132.672 125 132 124.328 132 123.5C132 122.672 132.672 122 133.5 122C134.328 122 135 122.672 135 123.5Z" fill="#F7F7F7" fill-opacity="0.15"/>
<path d="M144 123.5C144 124.328 143.328 125 142.5 125C141.672 125 141 124.328 141 123.5C141 122.672 141.672 122 142.5 122C143.328 122 144 122.672 144 123.5Z" fill="#F7F7F7" fill-opacity="0.15"/>
<path d="M153 123.5C153 124.328 152.328 125 151.5 125C150.672 125 150 124.328 150 123.5C150 122.672 150.672 122 151.5 122C152.328 122 153 122.672 153 123.5Z" fill="#F7F7F7" fill-opacity="0.15"/>
<path d="M63 132.5C63 133.328 62.3284 134 61.5 134C60.6716 134 60 133.328 60 132.5C60 131.672 60.6716 131 61.5 131C62.3284 131 63 131.672 63 132.5Z" fill="#F7F7F7" fill-opacity="0.15"/>
<path d="M72 132.5C72 133.328 71.3284 134 70.5 134C69.6716 134 69 133.328 69 132.5C69 131.672 69.6716 131 70.5 131C71.3284 131 72 131.672 72 132.5Z" fill="#F7F7F7" fill-opacity="0.15"/>
<path d="M81 132.5C81 133.328 80.3284 134 79.5 134C78.6716 134 78 133.328 78 132.5C78 131.672 78.6716 131 79.5 131C80.3284 131 81 131.672 81 132.5Z" fill="#F7F7F7" fill-opacity="0.15"/>
<path d="M90 132.5C90 133.328 89.3284 134 88.5 134C87.6716 134 87 133.328 87 132.5C87 131.672 87.6716 131 88.5 131C89.3284 131 90 131.672 90 132.5Z" fill="#F7F7F7" fill-opacity="0.15"/>
<path d="M99 132.5C99 133.328 98.3284 134 97.5 134C96.6716 134 96 133.328 96 132.5C96 131.672 96.6716 131 97.5 131C98.3284 131 99 131.672 99 132.5Z" fill="#F7F7F7" fill-opacity="0.15"/>
<path d="M108 132.5C108 133.328 107.328 134 106.5 134C105.672 134 105 133.328 105 132.5C105 131.672 105.672 131 106.5 131C107.328 131 108 131.672 108 132.5Z" fill="#F7F7F7" fill-opacity="0.15"/>
<path d="M117 132.5C117 133.328 116.328 134 115.5 134C114.672 134 114 133.328 114 132.5C114 131.672 114.672 131 115.5 131C116.328 131 117 131.672 117 132.5Z" fill="#F7F7F7" fill-opacity="0.15"/>
<path d="M126 132.5C126 133.328 125.328 134 124.5 134C123.672 134 123 133.328 123 132.5C123 131.672 123.672 131 124.5 131C125.328 131 126 131.672 126 132.5Z" fill="#F7F7F7" fill-opacity="0.15"/>
<path d="M135 132.5C135 133.328 134.328 134 133.5 134C132.672 134 132 133.328 132 132.5C132 131.672 132.672 131 133.5 131C134.328 131 135 131.672 135 132.5Z" fill="#F7F7F7" fill-opacity="0.15"/>
<path d="M144 132.5C144 133.328 143.328 134 142.5 134C141.672 134 141 133.328 141 132.5C141 131.672 141.672 131 142.5 131C143.328 131 144 131.672 144 132.5Z" fill="#F7F7F7" fill-opacity="0.15"/>
<path d="M153 132.5C153 133.328 152.328 134 151.5 134C150.672 134 150 133.328 150 132.5C150 131.672 150.672 131 151.5 131C152.328 131 153 131.672 153 132.5Z" fill="#F7F7F7" fill-opacity="0.15"/>
<rect x="1" y="1.23193" width="118" height="118" rx="59" stroke="url(#paint0_linear)" stroke-width="2"/>
<path d="M81.333 44.232H75.5197C75.813 43.4053 75.9997 42.4986 75.9997 41.5653C75.9997 37.1386 72.4263 33.5653 67.9997 33.5653C65.1997 33.5653 62.773 35.0053 61.333 37.1653L59.9997 38.952L58.6663 37.1386C57.2263 35.0053 54.7997 33.5653 51.9997 33.5653C47.573 33.5653 43.9997 37.1386 43.9997 41.5653C43.9997 42.4986 44.1863 43.4053 44.4797 44.232H38.6663C35.7063 44.232 33.3597 46.6053 33.3597 49.5653L33.333 78.8986C33.333 81.8586 35.7063 84.232 38.6663 84.232H81.333C84.293 84.232 86.6663 81.8586 86.6663 78.8986V49.5653C86.6663 46.6053 84.293 44.232 81.333 44.232ZM67.9997 38.8986C69.4663 38.8986 70.6663 40.0986 70.6663 41.5653C70.6663 43.032 69.4663 44.232 67.9997 44.232C66.533 44.232 65.333 43.032 65.333 41.5653C65.333 40.0986 66.533 38.8986 67.9997 38.8986ZM51.9997 38.8986C53.4663 38.8986 54.6663 40.0986 54.6663 41.5653C54.6663 43.032 53.4663 44.232 51.9997 44.232C50.533 44.232 49.333 43.032 49.333 41.5653C49.333 40.0986 50.533 38.8986 51.9997 38.8986ZM78.6663 78.8986H41.333C39.8663 78.8986 38.6663 77.6986 38.6663 76.232V73.5653H81.333V76.232C81.333 77.6986 80.133 78.8986 78.6663 78.8986ZM81.333 65.5653H38.6663V52.232C38.6663 50.7653 39.8663 49.5653 41.333 49.5653H52.213L48.2663 54.952C47.3863 56.152 47.653 57.832 48.853 58.6853C50.0263 59.5386 51.7063 59.272 52.5597 58.0986L59.9997 47.9653L67.4397 58.0986C68.293 59.272 69.973 59.5386 71.1463 58.6853C72.3463 57.832 72.613 56.152 71.733 54.952L67.7863 49.5653H78.6663C80.133 49.5653 81.333 50.7653 81.333 52.232V65.5653Z" fill="url(#paint1_linear)"/>
<defs>
<linearGradient id="paint0_linear" x1="120" y1="120.232" x2="-13.0441" y2="103.413" gradientUnits="userSpaceOnUse">
<stop stop-color="#F9096C"/>
<stop offset="1" stop-color="#FE6C6A"/>
</linearGradient>
<linearGradient id="paint1_linear" x1="86.6663" y1="84.232" x2="27.636" y2="76.3766" gradientUnits="userSpaceOnUse">
<stop stop-color="#F9096C"/>
<stop offset="1" stop-color="#FE6C6A"/>
</linearGradient>
</defs>
</svg>
